<?xml version="1.0" encoding="utf-8"?>
<!-- Generator: Adobe Illustrator 24.3.0, SVG Export Plug-In . SVG Version: 6.00 Build 0)  -->
<svg preserveAspectRatio="none" version="1.1" id="Layer_1" xmlns="http://www.w3.org/2000/svg" xmlns:xlink="http://www.w3.org/1999/xlink" x="0px" y="0px"
	 viewBox="0 0 216.89 66.02" style="enable-background:new 0 0 216.89 66.02;" xml:space="preserve">
<style type="text/css">
	.st0{fill:#313f3f;}
</style>
<g>
	<path class="st0" d="M216.29,1.52l0.17,0.14l0.43-0.13C216.73,1.53,216.42,1.55,216.29,1.52z"/>
	<path class="st0" d="M216.64,0.66c0.32,0.01,0.21-0.08,0.25-0.09C216.36,0.58,216.65,0.68,216.64,0.66z"/>
	<path class="st0" d="M215.58,64.05l0.17,0.14l0.43-0.13C216.02,64.07,215.71,64.08,215.58,64.05z"/>
	<path class="st0" d="M215.93,63.19c0.32,0.01,0.21-0.08,0.25-0.1C215.64,63.11,215.94,63.21,215.93,63.19z"/>
	<polygon class="st0" points="215.63,1.72 215.17,1.65 214.92,1.68 	"/>
	<polygon class="st0" points="214.2,64.21 214.92,64.26 214.46,64.18 	"/>
	<path class="st0" d="M213.95,40.71c-0.01,0.18-0.12,0.28,0.02,0.26C213.97,40.88,213.95,40.79,213.95,40.71z"/>
	<path class="st0" d="M213.91,35.57l-0.03-0.02c-0.03,0.03-0.04,0.08-0.04,0.18L213.91,35.57z"/>
	<polygon class="st0" points="213.8,58.55 213.83,58.66 213.9,58.79 	"/>
	<path class="st0" d="M213.95,58.02c-0.01-0.14-0.06-0.27-0.1-0.39c0.03,0.13,0.02,0.27-0.03,0.44
		C213.88,58.16,213.91,57.98,213.95,58.02z"/>
	<path class="st0" d="M213.87,60.86c-0.03-0.21-0.06-0.17-0.12-0.04l0.05,0.21C213.84,60.98,213.84,60.79,213.87,60.86z"/>
	<polygon class="st0" points="213.81,38.5 213.82,38.45 213.7,38.55 	"/>
	<path class="st0" d="M213.87,42.89c0-0.21-0.05-0.12-0.09-0.13L213.87,42.89z"/>
	<polygon class="st0" points="213.7,56.18 213.79,56.23 213.66,56 	"/>
	<path class="st0" d="M213.76,42.73c0,0.01,0,0.01,0,0.01c0,0,0,0.01,0.01,0L213.76,42.73z"/>
	<path class="st0" d="M213.71,54.73c0.02-0.01,0.04-0.04,0.06,0l-0.02-0.21C213.75,54.63,213.73,54.67,213.71,54.73z"/>
	<polygon class="st0" points="213.69,55.67 213.77,55.69 213.72,55.56 	"/>
	<path class="st0" d="M213.75,61.37c0,0.02,0.01,0.07,0.02,0.2c0.01-0.02,0.01-0.02,0.01-0.03c0.01,0.15,0.04-0.08,0-0.01
		c0-0.03,0-0.07,0.01-0.14C213.77,61.41,213.75,61.38,213.75,61.37z"/>
	<path class="st0" d="M213.83,59.53c-0.03,0-0.08,0.07-0.12,0.09l0.03,0.15C213.76,59.69,213.79,59.55,213.83,59.53z"/>
	<path class="st0" d="M213.67,65.26c-0.01,0.09,0.08,0.06,0.09,0.07C213.74,65.18,213.65,65.26,213.67,65.26z"/>
	<path class="st0" d="M213.71,49.71c-0.01,0.03-0.01,0.05-0.02,0.08c0.01,0.11,0.02,0.21,0.02,0.34
		C213.75,50,213.77,49.86,213.71,49.71z"/>
	<path class="st0" d="M213.73,53.52c0,0.05-0.01,0.1-0.01,0.14c0.01-0.02,0.01-0.03,0.01-0.03
		C213.73,53.61,213.73,53.57,213.73,53.52z"/>
	<path class="st0" d="M213.73,53.77c-0.01,0.04-0.01,0.07-0.01,0.09C213.74,53.89,213.75,53.87,213.73,53.77z"/>
	<polygon class="st0" points="213.68,0.6 213.71,0.38 213.65,0.52 	"/>
	<path class="st0" d="M213.7,57.26c0.03-0.05,0.07-0.16,0.04-0.18C213.73,57.13,213.71,57.2,213.7,57.26z"/>
	<path class="st0" d="M213.7,58.3c0,0.01,0.01,0.01,0.01,0.02C213.72,58.29,213.71,58.29,213.7,58.3z"/>
	<path class="st0" d="M213.66,53.29c-0.02,0.08,0.11,0.05,0.07,0.09C213.84,53.46,213.61,52.86,213.66,53.29z"/>
	<path class="st0" d="M213.69,37.4l-0.04-0.02C213.68,37.42,213.69,37.43,213.69,37.4z"/>
	<path class="st0" d="M213.6,22.14c0.05,0.21,0.02,0.31,0.16,0.22c0.05-0.34-0.12-0.08-0.07-0.38
		C213.64,21.89,213.64,22.22,213.6,22.14z"/>
	<path class="st0" d="M213.65,60.62l0.02,0.11C213.69,60.7,213.69,60.68,213.65,60.62z"/>
	<path class="st0" d="M213.68,60.83c-0.02,0,0.02,0.04,0.04,0.12l-0.04-0.22C213.65,60.75,213.61,60.76,213.68,60.83z"/>
	<path class="st0" d="M213.66,56.23c-0.01,0.01-0.01,0.01-0.02,0.01c0.01,0.01,0.01,0.01,0.02,0.01V56.23z"/>
	<path class="st0" d="M213.65,0.13L213.54,0c0.01,0.05,0.02,0.14-0.01,0.18L213.65,0.13z"/>
	<path class="st0" d="M213.64,56.7l0.01,0.1c0.02-0.11,0.05-0.19,0.11-0.34c-0.04-0.17-0.07-0.2-0.09-0.21l-0.01,0.48L213.64,56.7z"
		/>
	<path class="st0" d="M213.63,27.44c-0.02-0.07-0.03-0.1-0.06-0.1C213.59,27.41,213.61,27.45,213.63,27.44z"/>
	<path class="st0" d="M213.61,18.14c-0.02,0.07-0.03,0.12-0.05,0.14C213.58,18.29,213.6,18.25,213.61,18.14z"/>
	<path class="st0" d="M213.55,30.71c-0.02,0.02-0.04,0.03-0.06,0.03C213.51,30.78,213.53,30.78,213.55,30.71z"/>
	<path class="st0" d="M212.75,65.21l0.12,0.13c-0.01-0.05-0.02-0.14,0.02-0.18L212.75,65.21z"/>
	<polygon class="st0" points="212.72,64.74 212.69,64.96 212.75,64.82 	"/>
	<path class="st0" d="M212.73,0.08c0.01-0.09-0.08-0.06-0.09-0.08C212.66,0.16,212.75,0.07,212.73,0.08z"/>
	<path class="st0" d="M211.44,64.1c-0.14,0-0.33,0-0.51,0C211.03,64.11,211.19,64.11,211.44,64.1z"/>
	<path class="st0" d="M204.32,0.53C204.84,0.53,203.98,0.48,204.32,0.53L204.32,0.53z"/>
	<path class="st0" d="M204.43,0.55c-0.06-0.01-0.08-0.01-0.11-0.02c-0.11,0-0.26,0-0.51-0.01C203.98,0.59,203.25,0.58,204.43,0.55z"
		/>
	<path class="st0" d="M202.61,0.51c-0.14-0.03-0.75-0.04-0.53-0.07c-0.7,0.03-0.56,0.07-0.16,0.12L202.61,0.51z"/>
	<path class="st0" d="M201.97,0.64c-0.04,0.04,0.1,0,0.41-0.03l-0.75,0.05C201.73,0.68,201.75,0.73,201.97,0.64z"/>
	<path class="st0" d="M201.27,0.68l0.33-0.02C201.55,0.64,201.45,0.65,201.27,0.68z"/>
	<polygon class="st0" points="195.21,0.41 194.44,0.52 194.78,0.48 	"/>
	<path class="st0" d="M193.82,0.65c-0.03,0.01-0.06,0.01-0.08,0.01C193.78,0.66,193.82,0.66,193.82,0.65z"/>
	<path class="st0" d="M193.62,0.63c0.02,0,0.03-0.01,0.04-0.01C193.56,0.61,193.58,0.61,193.62,0.63z"/>
	<path class="st0" d="M192.87,0.49c0.32-0.06-0.43-0.11-0.1-0.14c-0.52,0.01-0.97,0.07-1.36,0.12
		C191.83,0.44,192.29,0.44,192.87,0.49z"/>
	<path class="st0" d="M189.55,0.58c0.18,0.02,0.38,0.04,0.6,0.05C189.98,0.6,189.62,0.56,189.55,0.58z"/>
	<path class="st0" d="M188.31,0.7l0.29-0.01c-0.36-0.01-0.62-0.04-1.1-0.12c-0.55,0.04-0.66,0.08-0.69,0.11l1.6,0.01L188.31,0.7z"/>
	<path class="st0" d="M186.74,0.67c0.02,0,0.04,0.01,0.07,0.02c0.01-0.01,0.01-0.01,0.02-0.02H186.74z"/>
	<polygon class="st0" points="186.76,0.53 186.02,0.67 186.59,0.63 	"/>
	<polygon class="st0" points="184.98,0.55 184.54,0.6 184.92,0.64 	"/>
	<path class="st0" d="M181.77,0.55l-0.69,0.03c0.37-0.01,0.51,0.02,0.7,0.03C181.76,0.59,181.66,0.56,181.77,0.55z"/>
	<path class="st0" d="M178.18,0.6L178.18,0.6c-0.08,0-0.21,0-0.38,0c0.16,0,0.3,0.01,0.44,0.01C178.21,0.61,178.19,0.61,178.18,0.6z
		"/>
	<path class="st0" d="M177.01,0.67c0.26,0.02,0.16-0.11,0.31-0.08C177.6,0.48,175.61,0.73,177.01,0.67z"/>
	<path class="st0" d="M165.2,0.62c0.08,0.01,0.17,0.01,0.25,0.02c0.35-0.02,0.7-0.03,1.12-0.02C166.15,0.57,165.67,0.55,165.2,0.62z
		"/>
	<path class="st0" d="M156.04,64.13c-0.17-0.01-0.28-0.03-0.35-0.04C155.67,64.11,155.76,64.12,156.04,64.13z"/>
	<path class="st0" d="M142.9,64.14c-0.65,0.05-0.98,0.02-0.68,0.16c1.12,0.05,0.27-0.13,1.27-0.07
		C143.73,64.17,142.78,64.17,142.9,64.14z"/>
	<path class="st0" d="M142.17,0.54l0.44-0.09C141.92,0.44,142.23,0.49,142.17,0.54z"/>
	<path class="st0" d="M142.09,0.56c0.02,0.01,0.03,0.01,0.04,0.01c0.03-0.01,0.04-0.02,0.04-0.02L142.09,0.56z"/>
	<path class="st0" d="M136.25,0.34c-0.26,0-0.57,0.01-0.85,0.02C136,0.37,136.34,0.48,136.25,0.34z"/>
	<path class="st0" d="M133.83,64.15c0.02,0,0.03,0,0.04,0c-0.02,0-0.03-0.01-0.05-0.01L133.83,64.15z"/>
	<polygon class="st0" points="128.1,0.5 127.93,0.5 128.24,0.63 	"/>
	<path class="st0" d="M125.41,64.16c0.23-0.02,0.33-0.04,0.32-0.06C125.49,64.12,125.36,64.14,125.41,64.16z"/>
	<path class="st0" d="M124.46,0.63l-0.07,0.04C124.52,0.65,124.57,0.63,124.46,0.63z"/>
	<path class="st0" d="M118.38,0.39l-0.06,0.04c0.11,0.03,0.28,0.04,0.61,0.04L118.38,0.39z"/>
	<path class="st0" d="M114.57,64.08c-0.07-0.02-0.09-0.04-0.11-0.06c-0.03,0.01-0.05,0.01-0.06,0.03
		C114.41,64.06,114.47,64.07,114.57,64.08z"/>
	<path class="st0" d="M102.33,0.79c0.07,0.02,0.09,0.03,0.11,0.06C102.54,0.83,102.54,0.81,102.33,0.79z"/>
	<path class="st0" d="M98.51,64.47l0.06-0.03c-0.11-0.04-0.28-0.04-0.62-0.04L98.51,64.47z"/>
	<path class="st0" d="M92.44,64.23l0.07-0.04C92.38,64.21,92.33,64.23,92.44,64.23z"/>
	<path class="st0" d="M91.49,0.71c-0.23,0.02-0.33,0.03-0.32,0.06C91.4,0.75,91.54,0.72,91.49,0.71z"/>
	<polygon class="st0" points="88.8,64.36 88.96,64.37 88.65,64.24 	"/>
	<path class="st0" d="M83.07,0.72c-0.02,0-0.03,0.01-0.04,0.01c0.02,0,0.04,0,0.06,0L83.07,0.72z"/>
	<path class="st0" d="M80.64,64.53c0.27,0.01,0.57-0.01,0.85-0.02C80.89,64.5,80.55,64.38,80.64,64.53z"/>
	<path class="st0" d="M74.8,64.31c-0.01,0-0.02,0-0.04,0c-0.02,0.01-0.03,0.01-0.03,0.02L74.8,64.31z"/>
	<path class="st0" d="M74.73,64.33l-0.44,0.09C74.98,64.42,74.67,64.38,74.73,64.33z"/>
	<path class="st0" d="M73.98,0.73c0.66-0.05,1-0.02,0.7-0.17c-1.11-0.05-0.26,0.14-1.27,0.07C73.15,0.69,74.17,0.7,73.98,0.73z"/>
	<path class="st0" d="M60.73,0.73c0.25,0.02,0.39,0.03,0.48,0.06C61.23,0.76,61.12,0.73,60.73,0.73z"/>
	<path class="st0" d="M51.69,64.25c-0.08-0.01-0.17-0.02-0.26-0.02c-0.34,0.01-0.7,0.03-1.12,0.02
		C50.74,64.29,51.23,64.31,51.69,64.25z"/>
	<path class="st0" d="M39.88,64.2c-0.26-0.02-0.16,0.11-0.31,0.08C39.29,64.39,41.28,64.14,39.88,64.2z"/>
	<path class="st0" d="M38.71,64.27C38.71,64.27,38.71,64.27,38.71,64.27c0.01,0,0.01,0,0.01,0c0.08,0,0.18-0.01,0.34-0.01
		c-0.15,0-0.29,0-0.42-0.01C38.67,64.26,38.7,64.26,38.71,64.27z"/>
	<path class="st0" d="M35.12,64.31l0.69-0.02c-0.37,0.01-0.51-0.02-0.7-0.04C35.13,64.28,35.24,64.3,35.12,64.31z"/>
	<polygon class="st0" points="31.92,64.31 32.36,64.26 31.98,64.23 	"/>
	<polygon class="st0" points="30.13,64.34 30.88,64.2 30.3,64.24 	"/>
	<path class="st0" d="M30.15,64.2c-0.02-0.01-0.04-0.01-0.07-0.02c-0.01,0.01-0.01,0.01-0.02,0.02H30.15z"/>
	<path class="st0" d="M28.58,64.17l-0.29,0.01c0.35,0.02,0.61,0.05,1.09,0.12c0.55-0.04,0.66-0.07,0.7-0.1l-1.61-0.02L28.58,64.17z"
		/>
	<path class="st0" d="M27.34,64.29c-0.18-0.02-0.38-0.03-0.6-0.05C26.91,64.26,27.27,64.31,27.34,64.29z"/>
	<path class="st0" d="M24.03,64.37c-0.32,0.06,0.43,0.11,0.1,0.14c0.52-0.01,0.96-0.07,1.36-0.11
		C25.07,64.43,24.62,64.42,24.03,64.37z"/>
	<path class="st0" d="M23.3,64.25c-0.01-0.01-0.02-0.01-0.03-0.02c-0.02,0.01-0.03,0.01-0.04,0.01
		C23.27,64.25,23.29,64.25,23.3,64.25z"/>
	<path class="st0" d="M23.08,64.22c0.02-0.01,0.06-0.01,0.08-0.01C23.11,64.2,23.07,64.2,23.08,64.22z"/>
	<polygon class="st0" points="21.68,64.46 22.45,64.34 22.11,64.38 	"/>
	<path class="st0" d="M20.4,64.25c-0.03-0.01-0.07-0.01-0.1-0.01C20.28,64.25,20.33,64.25,20.4,64.25z"/>
	<path class="st0" d="M15.62,64.19l-0.32,0.02C15.36,64.22,15.44,64.22,15.62,64.19z"/>
	<path class="st0" d="M14.29,64.35c0.14,0.03,0.75,0.04,0.52,0.07c0.7-0.03,0.56-0.06,0.16-0.12L14.29,64.35z"/>
	<path class="st0" d="M14.52,64.26l0.75-0.05c-0.1-0.02-0.11-0.07-0.34,0.02C14.98,64.18,14.83,64.22,14.52,64.26z"/>
	<path class="st0" d="M12.46,64.32c0.06,0.01,0.08,0.01,0.11,0.01c0.11,0,0.25,0,0.5,0.01c-0.07-0.03,0.02-0.04,0.06-0.04
		C13.09,64.3,12.92,64.3,12.46,64.32z"/>
	<path class="st0" d="M12.57,64.33C12.06,64.34,12.91,64.39,12.57,64.33L12.57,64.33z"/>
	<path class="st0" d="M5.38,0.77c0.16-0.01,0.37-0.01,0.58-0.01C5.86,0.76,5.68,0.76,5.38,0.77z"/>
	<path class="st0" d="M2.75,65.94c-0.01,0.1,0.08,0.06,0.09,0.08C2.83,65.89,2.76,65.92,2.75,65.94z"/>
	<polygon class="st0" points="2.69,0.66 1.97,0.61 2.44,0.68 	"/>
	<polygon class="st0" points="1.72,63.21 1.97,63.18 1.26,63.14 	"/>
	<path class="st0" d="M1.83,65.89l0.12,0.13c-0.01-0.05-0.02-0.14,0.01-0.18L1.83,65.89z"/>
	<path class="st0" d="M1.93,35.31c0.02-0.02,0.04-0.03,0.06-0.03C1.97,35.24,1.95,35.24,1.93,35.31z"/>
	<path class="st0" d="M1.87,47.88c0.02-0.08,0.03-0.12,0.05-0.14C1.9,47.73,1.88,47.76,1.87,47.88z"/>
	<path class="st0" d="M1.85,38.59c0.02,0.07,0.03,0.1,0.06,0.09C1.89,38.61,1.87,38.57,1.85,38.59z"/>
	<path class="st0" d="M1.87,41.13c0,0,0,0.01,0,0.01C1.87,41.14,1.87,41.13,1.87,41.13L1.87,41.13z"/>
	<path class="st0" d="M1.82,9.79c0.01-0.01,0.01-0.01,0.02-0.02c-0.01,0-0.01-0.01-0.02-0.01V9.79z"/>
	<polygon class="st0" points="1.81,65.43 1.77,65.64 1.84,65.5 	"/>
	<path class="st0" d="M1.89,43.88c-0.05-0.2-0.02-0.31-0.16-0.21C1.68,44,1.85,43.75,1.79,44.05C1.84,44.13,1.84,43.8,1.89,43.88z"
		/>
	<path class="st0" d="M1.79,28.62l0.04,0.02C1.81,28.6,1.79,28.59,1.79,28.62z"/>
	<path class="st0" d="M1.85,9.32l-0.01-0.1C1.82,9.33,1.79,9.42,1.73,9.56c0.04,0.17,0.07,0.2,0.09,0.21l0.01-0.48L1.85,9.32z"/>
	<path class="st0" d="M1.81,0.76c0.01-0.1-0.08-0.07-0.09-0.08C1.74,0.85,1.84,0.76,1.81,0.76z"/>
	<path class="st0" d="M1.81,5.29c0.02-0.03,0.06-0.03-0.02-0.1c0,0,0-0.01-0.01,0L1.81,5.29z"/>
	<polygon class="st0" points="1.79,10.34 1.71,10.33 1.76,10.46 	"/>
	<path class="st0" d="M1.78,7.71L1.78,7.71c0.01,0,0-0.01,0-0.01C1.78,7.71,1.78,7.71,1.78,7.71z"/>
	<polygon class="st0" points="1.78,9.84 1.69,9.79 1.82,10.02 	"/>
	<path class="st0" d="M1.77,5.11l0.02,0.08L1.8,5.19C1.83,5.21,1.81,5.17,1.77,5.11z"/>
	<path class="st0" d="M1.77,16.31c0.01-0.03,0.01-0.05,0.02-0.08c-0.01-0.11-0.03-0.21-0.02-0.34C1.74,16.02,1.71,16.17,1.77,16.31z
		"/>
	<path class="st0" d="M1.79,8.77C1.76,8.82,1.72,8.93,1.74,8.94C1.76,8.89,1.77,8.83,1.79,8.77z"/>
	<path class="st0" d="M1.75,12.39c0,0.03,0.01,0.07,0.01,0.15c0-0.06,0.01-0.12,0.01-0.17C1.76,12.38,1.76,12.39,1.75,12.39z"/>
	<path class="st0" d="M1.66,6.5c0.03,0,0.08-0.07,0.12-0.08L1.74,6.26C1.72,6.33,1.7,6.47,1.66,6.5z"/>
	<path class="st0" d="M1.75,12.25c0.01-0.04,0.01-0.07,0.01-0.09C1.75,12.14,1.74,12.15,1.75,12.25z"/>
	<path class="st0" d="M1.82,12.74c0.02-0.08-0.11-0.04-0.07-0.09C1.65,12.56,1.87,13.16,1.82,12.74z"/>
	<path class="st0" d="M1.77,11.3c-0.02,0.01-0.04,0.04-0.06,0l0.02,0.2C1.73,11.4,1.75,11.35,1.77,11.3z"/>
	<path class="st0" d="M1.72,23.29c0-0.01,0-0.01,0-0.01H1.71L1.72,23.29z"/>
	<polygon class="st0" points="1.67,27.52 1.66,27.57 1.79,27.47 	"/>
	<path class="st0" d="M1.73,4.65c0-0.01-0.01-0.07-0.02-0.2C1.7,4.47,1.7,4.47,1.7,4.48c0,0.03,0,0.08-0.01,0.15
		C1.71,4.62,1.72,4.64,1.73,4.65z"/>
	<path class="st0" d="M1.61,23.13c0,0.21,0.04,0.12,0.09,0.13L1.61,23.13z"/>
	<path class="st0" d="M1.7,4.48C1.69,4.33,1.65,4.59,1.7,4.48L1.7,4.48z"/>
	<path class="st0" d="M1.72,5.21L1.68,5C1.65,5.04,1.64,5.23,1.61,5.16C1.64,5.37,1.67,5.33,1.72,5.21z"/>
	<polygon class="st0" points="1.65,7.37 1.58,7.24 1.69,7.47 	"/>
	<path class="st0" d="M1.66,7.95c-0.06-0.1-0.1,0.13-0.13,0.03c0.01,0.16,0.06,0.29,0.11,0.41C1.61,8.26,1.61,8.12,1.66,7.95z"/>
	<path class="st0" d="M1.57,30.46l0.03,0.02c0.03-0.03,0.04-0.08,0.04-0.18L1.57,30.46z"/>
	<path class="st0" d="M213.53,63.41c-0.01,0-0.01,0-0.02,0c-0.01-0.03-0.02-0.06-0.04-0.09c0.04-0.11,0.06,0.08,0.11,0.03
		c-0.05-0.07-0.07-0.14-0.08-0.24l0.03,0.04c-0.01-0.09-0.01-0.18-0.02-0.28c0-0.01,0-0.02,0-0.04l0.02,0.03
		c-0.02-0.61,0.03-0.94,0.08-1.5c0.04,0.13,0.09,0.02,0.08-0.27c-0.02,0.08-0.04,0.18-0.07,0.16c0.01-0.08,0.02-0.18,0.02-0.28
		l-0.09,0.06c0.01-0.07,0.01-0.11,0.02-0.15l0.02,0.05l-0.01-0.06c0.01-0.06,0.03-0.09,0.04-0.14c-0.05-0.07-0.07-0.03-0.07,0.02
		l-0.01-0.02c0.02-0.23,0.01-0.51,0.03-0.74c0.01-0.18,0.04-0.32,0.11-0.37c0-0.01,0-0.01,0-0.01c0.01,0.01,0.02,0.01,0.03,0.01
		l-0.05-0.22c0,0.04,0,0.08,0,0.11c-0.03-0.01-0.09,0.12-0.09-0.08l0.04-0.05c0.01,0.01,0.01,0.02,0.02,0.03l-0.01-0.03l0.01-0.02
		l-0.02-0.02l-0.04-0.17c0.02-0.08,0.06-0.13,0.09-0.16c0,0.01,0,0.01,0.01,0.02c0-0.01,0-0.01,0-0.02
		c0.01-0.01,0.02-0.01,0.02-0.01c-0.01,0.04,0.01,0.12,0.02,0.17c0.02-0.07,0.03-0.16,0.03-0.26c0.01-0.03,0.02-0.06,0.02-0.09
		l-0.03,0.03c-0.01-0.14-0.03-0.3-0.03-0.37l-0.03,0.22c-0.01-0.16-0.02-0.33-0.02-0.49c0.01,0.05,0.02,0.1,0.03,0.14
		c0.01-0.02,0.02-0.03,0.02-0.04c-0.01-0.04-0.03-0.09-0.05-0.13c0-0.08,0-0.16,0-0.24c0.03,0.02,0.06,0.04,0.06-0.08
		c-0.03-0.1-0.04-0.22-0.04-0.34c-0.01,0.04-0.01,0.08-0.01,0.12c0-0.09,0-0.19,0-0.29c0.01,0.06,0.01,0.12,0.01,0.17
		c0.01-0.08,0.02-0.16,0.03-0.23c-0.01,0.01-0.01,0.02-0.02,0.02c0,0,0-0.01,0.01-0.02c-0.01,0-0.01-0.01-0.01-0.01
		c-0.01,0-0.02-0.01-0.03-0.02c-0.01,0-0.01,0-0.01-0.01c0-0.02,0-0.03,0-0.06c0,0.02,0,0.04,0.01,0.06
		c0.01-0.03,0.01-0.05,0.01-0.06c0.01,0.02,0.01,0.06,0.02,0.08c0.01,0.01,0.01,0.01,0.02,0.01c0.01-0.01,0.01-0.01,0.01-0.02
		c0,0.01-0.01,0.01-0.01,0.01l-0.05-0.46c0,0.06-0.01,0.12-0.01,0.19c-0.01-0.23-0.03-0.46-0.06-0.67c0.02-0.02,0.04-0.05,0.06-0.08
		c-0.03-0.01-0.07-0.01-0.11-0.24c-0.01,0.02-0.02,0.05-0.03,0.09c-0.01-0.28,0.07-0.31,0.04-0.8c-0.04-0.12-0.06-0.27-0.06-0.43
		c0.02,0.05,0.04,0.03,0.06-0.01c0.06,0.18,0.11,0.38,0.08,0.58c0.12-0.14-0.02-0.07,0.13-0.28c-0.16,0.16-0.04-0.53-0.12-0.53
		c0-0.01-0.01-0.02-0.01-0.02c0.09-0.18,0.04-0.33,0.16-0.58c-0.04,0.01-0.08,0.1-0.06-0.15c-0.01-0.01-0.02-0.04-0.03-0.06
		c-0.01-0.01-0.01-0.01-0.01,0.01c-0.02,0.06-0.04,0.11-0.06,0.13c-0.06-0.08-0.08-0.26-0.09-0.42c0.01,0.02,0.02,0.04,0.04,0.08
		c0.07-0.27,0.04-0.48,0.02-0.65c0.04-0.09,0.08-0.17,0.12,0.06l0.01-0.32c0.03-0.11,0.04-0.23,0.04-0.36
		c0.01-0.09,0-0.17-0.02-0.24c0.01-0.09-0.02-0.21-0.04-0.26c0.01,0.01,0.01,0.01,0.01,0.01l-0.06-0.49l0.02-0.01
		c0.01-0.17-0.01-0.33-0.03-0.51c0.05-0.09-0.03-0.33-0.02-0.41c0.01,0.02,0.01,0.04,0.03,0.04c0.01-0.02,0.01-0.04,0.01-0.06
		c0.01,0.01,0.02,0.02,0.04,0.03c-0.02-0.02-0.02-0.03-0.03-0.04c0.02-0.11,0.03-0.19,0.03-0.28c-0.02,0.08-0.06,0.16-0.07,0.23
		c-0.01-0.02-0.02-0.04-0.02-0.07c0-0.16,0.02-0.33,0.07-0.5c-0.02-0.11-0.03-0.22-0.03-0.37l0.07,0.11c-0.05-0.14-0.03-0.27,0-0.39
		l0.02-0.02c0-0.02-0.01-0.04-0.01-0.06c0.03-0.11,0.05-0.23,0.03-0.34c0,0.16-0.01,0.24-0.03,0.28c0.01-0.08,0.02-0.18,0.03-0.28
		c0.01-0.14,0.02-0.27-0.03-0.32c0.21-0.23,0.05-1.03,0.08-1.4l-0.1-0.01c0.01-0.2-0.01-0.39-0.04-0.62l0.04,0.03
		c-0.08-0.31-0.06-0.39-0.03-0.7c-0.04,0.04-0.09,0.02-0.13-0.04c0.02-0.16,0.04-0.32,0.05-0.49c0.01,0.01,0.02,0.02,0.02,0.03
		c-0.01,0.02-0.01,0.04-0.02,0.06c0.01-0.02,0.02-0.03,0.02-0.05c0.04,0.07,0.06,0.14-0.01,0.26c0.03,0.02,0.06,0.08,0.09,0.1
		c0.06-0.19,0.01-0.48,0.01-0.62c0,0.06-0.01,0.12-0.02,0.14l-0.04-0.14c0.01-0.13-0.01-0.27-0.03-0.4
		c0.01,0.02,0.02,0.03,0.03,0.06c-0.01-0.11-0.06-0.18-0.07-0.34c0.08,0.04,0.16,0.03,0.2,0.26l-0.09-0.51
		c0.03-0.03,0.09-0.26,0.12-0.19c0.03-0.21-0.06-0.47-0.09-0.75c0.04-0.1,0.07-0.17,0.02-0.16l-0.03,0.02c0-0.06,0-0.12,0.01-0.18
		c-0.02-0.02-0.03-0.06-0.04-0.14c0.02-0.35,0.12-0.67,0.01-1.08l0.14-0.24c-0.03-0.33-0.18,0.32-0.23-0.22
		c-0.05-0.38,0.12-0.14,0.16-0.28c-0.07-0.19-0.22-0.53-0.1-0.88c0.03,0.12,0.01,0.21,0.02,0.32l0.08-0.27
		c0.13,0.33,0.08,0.56,0.19,0.31c-0.27-0.03-0.03-1.05-0.3-1.09l0.06-0.18c0,0.05,0.01,0.06,0.01,0.11
		c0.13-0.34-0.19-0.26-0.16-0.71c0.02-0.16,0.06-0.26,0.09-0.16l-0.07-0.35c0.01-0.08,0.04-0.08,0.05-0.02l-0.02-0.48v-0.01
		c-0.02-0.05-0.06-0.13-0.09-0.21c0.01-0.03,0.01-0.05,0.01-0.08c0,0,0.01,0.01,0.01,0l-0.01-0.04c0.01-0.04,0.01-0.08,0.02-0.12
		c-0.02,0.01-0.03,0.02-0.04,0.02l-0.03-0.12c0.01-0.02,0.01-0.04,0.02-0.07c0.06-0.03,0.11,0.18,0.1,0.35
		c0.27-0.27-0.07-0.24,0.09-0.83l0.03,0.27c0.15-0.18,0.09-0.39,0.19-0.71c-0.04,0.07-0.2,0.51-0.28,0.38
		c0.02,0.08,0.05,0.18,0,0.23c-0.01-0.01-0.02-0.02-0.03-0.03c-0.01-0.08-0.01-0.14-0.01-0.21c0.01-0.02,0.01-0.04,0.02-0.06
		c0,0,0-0.01,0-0.01c0.02-0.07,0.02-0.16,0.01-0.27c0-0.04,0-0.08-0.01-0.12c0.07-0.03,0.05-0.17,0.04-0.36
		c0.02,0,0.03,0.08,0.06,0.13c0-0.06-0.01-0.1-0.01-0.14l0.08,0.01c-0.03-0.23-0.1-0.21-0.16-0.34c0.01-0.26,0.11-0.31,0.19-0.37
		c0.02-0.4-0.16,0.28-0.18-0.19c0.05-0.34,0-0.58-0.08-0.98c0.04-0.23,0.08,0.04,0.11-0.04l-0.1-0.21c0-0.06,0.03-0.03,0.05-0.03
		c-0.04-0.18-0.13-0.02-0.16-0.29c-0.14-0.08,0.21-0.57,0.04-0.91c0.04-0.08,0.08,0.04,0.13,0.02c-0.11-0.47-0.08-0.41-0.22-0.79
		l0.08-0.33c-0.05,0.12-0.1,0.1-0.16,0.02c0.02-0.08,0.04-0.16,0.04-0.23c0.02,0.01,0.05,0.02,0.07,0.01
		c-0.01-0.03-0.03-0.08-0.03-0.14c0.02,0.03,0.04,0.04,0.05,0.03c0.02-0.02-0.01-0.06-0.04-0.13l0.14-0.09l-0.06-0.03l0.04-0.28
		c0.03-0.06,0.06-0.11,0.07-0.16c0.02-0.04,0.03,0.07,0.04,0.13c0.08-0.33,0-0.26-0.07-0.27c-0.02-0.06-0.04-0.12-0.07-0.18
		c0.07-0.04,0.16,0.08,0.17-0.15c0.06-0.13-0.22-0.74-0.09-1.08c-0.01,0.01-0.01,0.01-0.02,0.02c0.01-0.03,0.01-0.04,0.02-0.07
		c-0.08,0.04-0.12-0.01-0.14-0.12c0.02-0.11,0.04-0.23,0.06-0.35c0.01,0.04,0.01,0.08,0,0.12c0.04-0.09,0.04-0.17,0.02-0.24
		c0.02-0.14,0.01-0.27-0.06-0.36c0.02-0.03,0.03-0.04,0.04-0.05c-0.02-0.11-0.04-0.28-0.06-0.44c0.01-0.01,0.01-0.01,0.02,0.01
		c0.01-0.19,0.01-0.43,0-0.67c0-0.08-0.01-0.17-0.02-0.26c-0.01-0.11-0.02-0.22-0.04-0.3c-0.01-0.07-0.02-0.14-0.02-0.21
		c0.06,0.02,0.13,0.05,0.15,0.07l-0.14-0.2c0.02-0.04,0.04-0.07,0.09-0.07l-0.01-0.09l0.12,0.1c-0.11-0.17-0.09-0.26-0.07-0.38
		l-0.06,0.03l-0.01-0.2c0.03,0.03,0.05,0.08,0.07,0.15c0.02-0.11,0.04-0.25-0.01-0.49c-0.01,0.02-0.02,0.03-0.03,0.05
		c-0.01-0.12-0.02-0.22-0.05-0.29c0.02-0.05,0.04-0.11,0.07-0.21c-0.02,0.03-0.04,0.03-0.08,0.02c-0.02-0.01-0.03-0.01-0.05-0.02
		c0.02-0.02,0.03,0.02,0.05,0.02c0.01-0.08,0.02-0.15,0.02-0.22c0.03,0.01,0.06,0.02,0.07,0.03l-0.06-0.12
		c0.01-0.13,0.01-0.22,0-0.32c0.03-0.02,0.06-0.06,0.08-0.09c-0.03,0,0.01-0.41-0.01-0.52l-0.05,0.19c0.01-0.16-0.02-0.27-0.06-0.36
		c0.02-0.13,0.04-0.31,0.06-0.51c0.02-0.19,0.02-0.39,0-0.59c0.01,0.02,0.02,0.04,0.03,0.07c0.05-0.19,0.07-0.06,0.07-0.34
		c0.07-0.1,0.09,0.16,0.1,0.24l0.04-0.67c-0.09,0.02-0.12-0.23-0.17-0.38c0.02-0.21,0.03-0.39,0.01-0.54
		c0.02-0.23-0.17-0.4-0.06-0.7c0.01-0.11,0.17-0.33,0.09-0.35c-0.06,0.07-0.16,0.11-0.27,0.14c0.03-0.2,0.01-0.55,0.09-0.54
		c0-0.02,0-0.04,0-0.06c0.02,0,0.03-0.01,0.05-0.03c-0.02-0.01-0.03-0.02-0.05-0.05c0-0.05,0-0.1,0-0.15c0.03,0,0.06,0.01,0.05-0.15
		c-0.02-0.01-0.04-0.03-0.04-0.06c0.02-0.92,0.09-1.82,0.09-2.69l-0.14,0.12l0.01-0.16c0.01,0.01,0.03-0.01,0.05-0.04
		c-0.02-0.01-0.03-0.03-0.05-0.07l0.01-0.09c0.03-0.09,0.11-0.12,0.11,0.13c0.08-0.13-0.07-0.42-0.1-0.43
		c0.01-0.07,0.02-0.11,0.03-0.14c0,0,0-0.01,0.01-0.01c0.06-0.14,0.13,0.33,0.14,0.2l-0.01-0.21l-0.02,0.05
		c-0.06-0.17-0.12-0.18-0.12-0.49c0.03-0.19,0.09-0.1,0.09-0.18c0.01,0,0.02-0.02,0.01-0.12l0.01-0.45l-0.11,0.18
		c-0.06-0.18,0-0.39-0.11-0.24c0.17-0.36,0.06-1.66,0.11-1.84c-0.08-0.28-0.08-0.56-0.07-0.9c-0.02,0.08-0.13,0.13-0.14-0.07
		c-0.01-0.02-0.01-0.06,0-0.09c0.26,0.11,0.12-0.51,0.29-0.76c-0.11,0.12-0.03-0.85-0.2-0.52c0.02-0.24,0.1-0.01,0.16-0.2
		c-0.1-0.58,0.07-1.29,0.03-2.01c-0.03-0.01-0.09,0.11-0.14-0.04l0.17-0.38c-0.02-0.14-0.2-0.13-0.08-0.39
		c-0.03,0.04-0.08,0.09-0.09-0.01c0.17-1.42-0.14-2.9,0.18-4.34c-0.07,0.19-0.08,0.07-0.08-0.08c-0.02,0.1-0.08,0-0.13,0.02
		l0.01-0.04l0.12,0.01h0.01c0.37-0.14,2.14-0.01,2.35-0.15l-0.63,0.03c0.84-0.16-1.18-0.36-1.05-0.57
		c-0.21,0.04-0.46,0.05-0.72,0.04c-0.06-0.19,0.02-0.58-0.09-0.63l0.02,0.19c-0.15-0.26-0.33,0.36-0.52,0.32
		c0.02,0.03,0.03,0.06,0.03,0.09c-0.81-0.07-1.77-0.18-2.74-0.02c-0.34-0.04,0.29-0.07,0.11-0.12c-0.22,0.05-0.47,0.08-0.81,0.08
		l0.12-0.04c-0.29,0.01-0.61,0.02-0.92,0.03c-0.04,0-0.09,0-0.13-0.01l0.09-0.02c-2.03,0.02-3.1-0.04-4.98-0.09
		c0.41-0.04,0.09-0.09-0.83-0.08c0.25,0.02,0.52,0.04,0.46,0.07c-0.29-0.01-0.59-0.02-0.92-0.02l0.21,0.11
		c-0.22-0.01-0.38-0.02-0.51-0.02l0.28-0.03l-0.3,0.02c-0.19-0.01-0.31-0.03-0.47-0.04c-0.22,0.05-0.12,0.07,0.08,0.07l-0.09,0.01
		c-0.75-0.02-1.7-0.01-2.45-0.03c-0.58-0.01-1.05-0.04-1.21-0.12c-0.01,0-0.02,0-0.03,0c0.04-0.01,0.05-0.02,0.03-0.03l0.51-0.04
		c-0.26-0.02-0.75-0.04-0.79-0.09c-0.04,0.03,0.22,0.08,0.28,0.13l-0.75,0.06c0.16,0,0.28,0,0.39,0c-0.04,0.03,0.37,0.09-0.28,0.09
		l-0.17-0.04c0.01-0.01,0.03-0.01,0.04-0.01l-0.07,0.01l-0.05-0.02L197,0.72l-0.55,0.04c-0.26-0.02-0.42-0.06-0.49-0.09
		c0.01,0,0.02-0.01,0.03-0.01c-0.02,0-0.04,0-0.06,0c-0.01-0.01-0.02-0.01-0.02-0.02c0.13,0.01,0.38-0.02,0.53-0.02
		c-0.24-0.02-0.53-0.03-0.83-0.03c-0.08-0.01-0.18-0.02-0.3-0.03l0.09,0.03c-0.49,0.01-0.98,0.03-1.24,0.03l0.73,0.03
		c-0.52,0.02-1.07,0.02-1.64,0.02c0.17-0.01,0.33-0.01,0.48-0.02c-0.04-0.01-0.08-0.02-0.12-0.03c-0.17,0.01-0.3,0.03-0.43,0.05
		c-0.27,0.01-0.53,0.01-0.81,0.01c0.07-0.03,0.13-0.07-0.27-0.06c-0.34,0.04-0.72,0.04-1.16,0.05c0.13,0.01,0.27,0.01,0.4,0.01
		c-0.32,0-0.64,0-0.96,0c0.19-0.01,0.38-0.01,0.56-0.01c-0.26-0.01-0.51-0.03-0.75-0.04c0,0.01-0.01,0.01-0.01,0.01
		c0.01,0,0.01,0,0.02,0.01c-0.01,0.01-0.03,0.01-0.03,0.01c0.01-0.01,0.02-0.01,0.02-0.01s-0.01,0-0.01-0.01c-0.01,0-0.01,0-0.01,0
		l-1.48,0.05c0.17,0.01,0.34,0.01,0.58,0.01c-0.77,0.01-1.51,0.03-2.21,0.06c-0.08-0.02-0.17-0.04-0.26-0.07
		c-0.03,0.03-0.03,0.07-0.82,0.12c0.06,0.01,0.16,0.02,0.29,0.03c-0.93,0.01-1.01-0.07-2.64-0.04l0.07-0.01
		c-0.32,0.04-0.73,0.06-1.16,0.07c-0.11,0-0.22,0-0.33,0c0.18-0.02,0.12-0.04-0.01-0.06c0.6-0.06,1.26-0.12,1.92-0.09
		c-0.45-0.13-0.23,0.02-0.93-0.13c0.53,0.16-1.74,0.04-1.74,0.13c-0.03,0-0.06,0.01-0.09,0.01c-0.59-0.1-1.1-0.04-1.91-0.17
		c0.03,0.04,0.33,0.09-0.5,0.07c0.04-0.02,0.02-0.03-0.19-0.01c0.07,0.01,0.12,0.01,0.17,0.01c-0.04,0.01-0.12,0.03-0.16,0.03
		c-0.02,0-0.03,0-0.06,0c0.02,0,0.03,0.01,0.05,0.01c0.01,0,0.01,0,0.02,0c0.19,0.02,0.36,0.04,0.42,0.07
		c-0.25,0.06-0.85,0.08-1.37,0.11c0.04-0.02,0.13-0.03,0.27-0.04c-0.89-0.07-1.59-0.06-2.17-0.03c-0.29-0.05-0.55-0.09,0.21-0.13
		l-1.05-0.01c-0.61-0.05-1.46-0.07-1.99-0.03c-0.29-0.01-0.68,0.03-0.85,0.04c0.01-0.01,0.02-0.01,0.04-0.01l-1.64,0.06l-0.02-0.02
		c-0.55-0.01-1.11,0.02-1.67,0.03h-0.01c-0.32-0.06-1.09,0.03-1.33,0.02c0.06-0.01,0.11-0.01,0.14-0.03
		c-0.07-0.01-0.13-0.01-0.2-0.02c0.02-0.01,0.04-0.02,0.08-0.03c-0.04,0.01-0.09,0.02-0.13,0.03c-0.36-0.03-0.66-0.04-0.93-0.04
		c0.28,0.02,0.55,0.06,0.75,0.08c-0.07,0.01-0.13,0.01-0.21,0.02c-0.55,0-1.1-0.02-1.67-0.07c-0.36,0.02-0.73,0.03-1.2,0.03
		l0.35-0.07c-0.44,0.05-0.87,0.03-1.3,0l-0.04-0.02c-0.06,0.01-0.13,0.01-0.2,0.01c-0.38-0.03-0.76-0.05-1.14-0.02
		c0.53,0,0.79,0.01,0.91,0.02c-0.28-0.01-0.61-0.02-0.91-0.02c-0.48-0.02-0.91-0.02-1.06,0.02c-0.75-0.23-3.39-0.05-4.62-0.09
		l-0.04,0.11c-0.66-0.01-1.3,0.01-2.05,0.04l0.07-0.04c-1,0.09-1.31,0.07-2.28,0.03c0.12,0.04,0.07,0.09-0.14,0.13
		c-0.51-0.02-1.07-0.04-1.64-0.05c0.03-0.01,0.07-0.02,0.1-0.02c0.04,0.01,0.08,0.01,0.12,0.01c-0.03-0.01-0.06-0.01-0.08-0.01
		c0.22-0.04,0.48-0.06,0.86,0.01c0.06-0.03,0.27-0.07,0.33-0.1c-0.64-0.07-1.6-0.02-2.04-0.02c0.17,0.01,0.37,0.01,0.48,0.03
		l-0.47,0.04c-0.44-0.01-0.88,0.01-1.32,0.03c0.05-0.01,0.11-0.02,0.18-0.02c-0.36,0.01-0.61,0.06-1.14,0.07
		c0.13-0.08,0.11-0.17,0.78-0.21l-1.62,0.09c-0.11-0.03-0.87-0.09-0.65-0.13c-0.67-0.04-1.56,0.06-2.46,0.09
		c-0.33-0.05-0.58-0.08-0.53-0.02l0.06,0.03c-0.21,0-0.41,0-0.61-0.01c-0.06,0.01-0.19,0.03-0.46,0.04
		c-1.17-0.02-2.2-0.12-3.59-0.01l-0.78-0.15c-1.08,0.03,1.06,0.19-0.75,0.25c-1.28,0.04-0.47-0.13-0.92-0.17
		c-0.64,0.08-1.75,0.23-2.92,0.11c0.39-0.03,0.7-0.01,1.06-0.02l-0.9-0.08c1.08-0.14,1.86-0.09,1.02-0.21
		c-0.13,0.29-3.48,0.03-3.61,0.32l-0.59-0.06c0.17,0.01,0.19-0.01,0.36-0.01c-1.15-0.14-0.85,0.22-2.33,0.17
		c-0.48-0.02-0.83-0.06-0.59-0.09l-1.08,0.07c-0.28-0.01-0.26-0.04-0.06-0.05l-1.61,0.02l0.01-0.01c-0.16,0.03-0.46,0.07-0.72,0.11
		c-0.08-0.01-0.17-0.01-0.26-0.01c0.02-0.01,0.02-0.01,0-0.01l-0.12,0.01c-0.13-0.01-0.26-0.01-0.39-0.02
		c0.03,0.02,0.05,0.03,0.07,0.04l-0.4,0.03c-0.07-0.01-0.15-0.02-0.23-0.02c-0.09-0.06,0.58-0.12,1.16-0.11
		c-0.9-0.29-0.8,0.08-2.75-0.09l0.91-0.04c-0.58-0.17-1.3-0.11-2.34-0.21c0.23,0.04,1.79,0.23,1.22,0.32
		c0.27-0.02,0.64-0.06,0.8-0.01c-0.04,0.02-0.08,0.03-0.11,0.04c-0.25,0.01-0.47,0.01-0.68,0.01c-0.05-0.01-0.11-0.01-0.17-0.02
		c-0.01,0-0.02,0-0.03,0c-0.23-0.02-0.51-0.03-0.89-0.01c-0.13,0-0.26,0-0.38,0.01c-0.09-0.07-0.58-0.06-1.2-0.05
		c0-0.02,0.27-0.04,0.46-0.06c-0.18,0.01-0.34,0.01-0.48,0.01l0.03-0.08c-0.75,0.04-0.69,0.11-1.13,0.17
		c-0.83-0.02-1.01-0.12-1.2-0.21c-1.34-0.02,0.92,0.17-0.66,0.19c-1.12-0.05-1.9,0.01-3.23,0.09c-0.78-0.05,0.14-0.08-0.14-0.12
		l-0.69,0.11c-0.17,0-0.12-0.03-0.09-0.05c-0.58,0.04-0.04,0.14-0.96,0.17c-0.25,0.16-1.88-0.22-3.01-0.05
		c-0.28-0.04,0.13-0.08,0.05-0.14c-1.56,0.12-1.33,0.08-2.61,0.24l-1.09-0.09c0.41,0.06,0.34,0.11,0.06,0.17
		c-0.25-0.02-0.52-0.04-0.77-0.04c0.04-0.03,0.07-0.06,0.04-0.08c-0.09,0.01-0.27,0.03-0.47,0.03c0.09-0.02,0.15-0.04,0.11-0.06
		c-0.04-0.01-0.19,0.02-0.43,0.06l-0.32-0.16l-0.08,0.06l-0.92-0.05c-0.2-0.03-0.38-0.06-0.53-0.07c-0.14-0.02,0.22-0.03,0.41-0.05
		c-1.1-0.08-0.85,0-0.9,0.08c-0.2,0.02-0.4,0.05-0.6,0.08C98.57,0.7,98.98,0.6,98.2,0.59c-0.42-0.06-2.44,0.23-3.59,0.09
		c0.02,0.01,0.05,0.01,0.07,0.02c-0.08-0.01-0.15-0.01-0.23-0.02c0.15,0.09-0.04,0.13-0.39,0.15c-0.36-0.02-0.75-0.05-1.15-0.07
		c0.12,0,0.24,0,0.39,0.01c-0.32-0.05-0.57-0.04-0.8-0.02c-0.45-0.02-0.87-0.01-1.18,0.06c-0.12-0.02-0.16-0.03-0.16-0.04
		c-0.35,0.02-0.93,0.04-1.47,0.07c-0.02-0.01-0.01-0.02,0.04-0.03c-0.62-0.01-1.43-0.01-2.2,0c-0.26,0-0.55,0.01-0.85,0.02
		c-0.37,0.01-0.72,0.03-1,0.04c-0.24,0.01-0.48,0.02-0.68,0.02c0.07-0.07,0.17-0.14,0.23-0.17l-0.68,0.15
		c-0.14-0.02-0.22-0.04-0.22-0.09h-0.31l0.32-0.13c-0.55,0.12-0.85,0.11-1.26,0.08l0.09,0.06l-0.65,0.01
		c0.11-0.03,0.27-0.06,0.49-0.07c-0.37-0.02-0.84-0.05-1.63,0.01c0.05,0.01,0.11,0.02,0.16,0.03c-0.42,0.01-0.72,0.03-0.96,0.05
		c-0.16-0.01-0.36-0.04-0.69-0.08c0.08,0.02,0.09,0.06,0.06,0.09h-0.01c-0.02,0.02-0.04,0.03-0.08,0.05
		c-0.06-0.02,0.04-0.03,0.08-0.05c-0.28-0.01-0.51-0.02-0.72-0.03c0.01-0.03,0.04-0.06,0.12-0.07L78.94,0.8
		c-0.42-0.01-0.74-0.01-1.05,0.01c-0.08-0.04-0.19-0.08-0.31-0.1c0.08,0.04-1.32-0.01-1.72,0.02l0.64,0.06
		c-0.51-0.01-0.87,0.02-1.16,0.06c-0.44-0.02-1.03-0.04-1.69-0.07c0,0,0,0-0.01,0c-0.63-0.02-1.31-0.02-1.96,0
		c0.08-0.01,0.16-0.02,0.23-0.03c-0.64-0.06-0.18-0.08-1.13-0.08c-0.34-0.07,0.52-0.1,0.8-0.11l-2.22-0.04
		c0.07,0.1-0.78,0.13-1.28,0.18c-0.68-0.02-1.3-0.04-1.77-0.01c-0.78-0.02-1.33,0.18-2.31,0.06c-0.36-0.01-1.08-0.18-1.15-0.1
		c0.22,0.06,0.38,0.17,0.46,0.29c-0.67-0.03-1.82,0-1.79-0.09c-0.07,0-0.13,0-0.19,0c0-0.02-0.03-0.04-0.11-0.05
		c-0.01,0.02-0.08,0.03-0.16,0.05c-0.16,0-0.33,0-0.49,0c-0.01-0.03,0.02-0.07-0.51-0.06c-0.02,0.03-0.09,0.04-0.17,0.05
		c-3.05-0.02-6.03-0.09-8.9-0.11l0.39,0.16h-0.5c0.01-0.01-0.03-0.03-0.15-0.06c-0.02,0.02-0.09,0.04-0.22,0.06h-0.32
		c-0.31-0.04-0.42-0.12,0.43-0.12c-0.44-0.09-1.41,0.07-1.44,0.11c-0.22-0.01-0.37-0.02-0.47-0.03c-0.01,0-0.02,0-0.04-0.01
		c-0.48-0.06,1.08-0.15,0.66-0.15l-0.69,0.01l0.16,0.02c-0.56,0.07-0.61,0.13-1.62,0.13c-0.64-0.03-0.33-0.1-0.58-0.11
		c0-0.01-0.08-0.02-0.38-0.01l-1.49-0.01l0.6,0.12c-0.64,0.06-1.35,0-0.78,0.12C43.37,0.76,39,0.89,38.39,0.82
		c-0.92,0.09-1.84,0.09-2.97,0.08c0.27,0.03,0.43,0.15-0.37,0.15c-0.05,0-0.1,0-0.16,0c0.34-0.28-1.66-0.13-2.5-0.32
		c0.29,0.11-2.79,0.03-1.74,0.21c-0.82-0.02-0.05-0.11-0.67-0.17c-1.94,0.11-4.27-0.07-6.66-0.04c-0.04,0.04,0.36,0.1-0.16,0.16
		L21.91,0.7c-0.47,0.02-0.43,0.22-1.3,0.08c0.12,0.03,0.31,0.08-0.01,0.09C15.9,0.7,11.01,1.03,6.24,0.68
		c0.65,0.07,0.22,0.08-0.28,0.08c0.32,0.02-0.01,0.09,0.06,0.14L4.03,0.77c-0.2,0.08-0.82,0.07-1.37,0.08l0.08-0.03L2.62,0.68
		c0,0.04,0.01,0.12-0.01,0.16c-0.44,0-0.85,0.01-0.93,0.07l0.63-0.03C1.95,0.96,2.11,1.03,2.41,1.12c-0.01,0-0.01,0.01-0.02,0.01
		C2.27,1.22,2.15,1.51,2.02,1.48C2.19,1.77,1.77,2.23,2.01,2.7C1.97,2.8,1.95,2.61,1.9,2.66c0.04,0.07,0.07,0.14,0.08,0.24
		L1.95,2.88c0.01,0.08,0.01,0.18,0.02,0.28c0,0.01,0,0.02,0,0.04L1.95,3.16c0.02,0.61-0.04,0.93-0.08,1.5
		C1.82,4.54,1.77,4.65,1.79,4.94c0.02-0.08,0.04-0.18,0.07-0.16C1.84,4.87,1.84,4.96,1.83,5.06L1.92,5
		C1.92,5.07,1.91,5.11,1.91,5.15L1.9,5.13L1.9,5.16C1.89,5.22,1.87,5.25,1.86,5.3c0.05,0.07,0.07,0.03,0.07-0.03L1.94,5.3
		C1.92,5.52,1.93,5.81,1.91,6.05C1.9,6.22,1.87,6.36,1.8,6.41c0,0,0,0,0,0.01C1.8,6.41,1.79,6.4,1.77,6.41l0.05,0.22
		c0-0.05,0-0.09,0-0.12c0.03,0.02,0.09-0.11,0.09,0.09L1.87,6.66c0-0.01-0.01-0.01-0.01-0.02l0.01,0.03L1.85,6.68L1.87,6.7
		l0.04,0.17C1.89,6.95,1.85,7,1.82,7.02c0-0.01,0-0.01-0.01-0.02c0,0.01,0,0.01,0,0.02C1.8,7.02,1.8,7.02,1.79,7.03
		C1.8,6.98,1.78,6.9,1.77,6.86C1.75,6.93,1.75,7.02,1.75,7.12C1.74,7.14,1.73,7.17,1.72,7.21l0.03-0.03
		c0.01,0.15,0.03,0.3,0.03,0.37l0.03-0.22c0.01,0.16,0.02,0.33,0.02,0.49c-0.01-0.05-0.01-0.1-0.02-0.14
		C1.8,7.7,1.79,7.71,1.79,7.71C1.8,7.77,1.81,7.81,1.83,7.85c0,0.08,0.01,0.16,0.01,0.24C1.81,8.07,1.77,8.05,1.78,8.18
		c0.03,0.11,0.04,0.22,0.04,0.35C1.83,8.48,1.83,8.44,1.84,8.4c0,0.09,0,0.19,0,0.29C1.83,8.63,1.83,8.58,1.82,8.53
		C1.81,8.6,1.8,8.68,1.79,8.75C1.8,8.74,1.8,8.74,1.8,8.74c0,0,0,0.01,0,0.01v0.01c0.02,0.01,0.02,0.02,0.03,0.02v0.01h0.01
		c0,0.02,0,0.03,0,0.06c0-0.02,0-0.03-0.01-0.06C1.82,8.91,1.81,8.8,1.8,8.75c0,0-0.01,0-0.01,0v0.01l0.04,0.46
		c0.01-0.05,0.01-0.11,0.01-0.19C1.85,9.26,1.87,9.49,1.9,9.7C1.88,9.72,1.86,9.75,1.84,9.78c0.03,0.01,0.07,0.01,0.11,0.24
		c0.01-0.02,0.02-0.05,0.03-0.09c0.01,0.28-0.07,0.31-0.04,0.8l-0.01-0.02C1.97,10.83,2,11,2,11.17c-0.02-0.06-0.04-0.04-0.06,0
		c-0.06-0.18-0.11-0.38-0.08-0.58c-0.12,0.13,0.02,0.07-0.13,0.28c0.16-0.16,0.04,0.53,0.12,0.53c0,0.01,0.01,0.02,0.01,0.03
		C1.77,11.6,1.82,11.75,1.7,12c0.04-0.01,0.08-0.11,0.06,0.15c0.01,0.01,0.02,0.03,0.03,0.06c0.01,0.01,0.01,0.01,0.01-0.01
		c0.02-0.06,0.04-0.11,0.06-0.13c0.06,0.08,0.07,0.26,0.09,0.42c-0.01-0.02-0.02-0.04-0.04-0.08c-0.07,0.27-0.05,0.48-0.02,0.66
		C1.85,13.15,1.81,13.23,1.78,13l-0.01,0.31c-0.05,0.19-0.07,0.44-0.03,0.6c-0.02,0.09,0.03,0.22,0.04,0.27
		c-0.01-0.01-0.01-0.01-0.01-0.02l0.06,0.49l-0.02,0.01C1.8,14.83,1.82,15,1.84,15.17c-0.01,0.02-0.02,0.05-0.02,0.09
		c0,0.11,0.04,0.26,0.03,0.31c-0.01-0.02-0.01-0.03-0.03-0.04c-0.01,0.02-0.01,0.04-0.01,0.06c-0.01,0-0.02-0.01-0.04-0.02
		c0.02,0.02,0.02,0.03,0.03,0.04c-0.02,0.11-0.03,0.2-0.03,0.28c0.02-0.08,0.06-0.16,0.07-0.22c0.01,0.02,0.02,0.04,0.02,0.06
		c0,0.16-0.02,0.33-0.07,0.5c0.02,0.11,0.03,0.22,0.03,0.37l-0.07-0.11c0.06,0.13,0.03,0.26,0.01,0.39l-0.02,0.01
		c0,0.02,0.01,0.04,0.01,0.07c-0.03,0.11-0.05,0.23-0.03,0.34c0-0.16,0.01-0.24,0.03-0.28c-0.01,0.09-0.02,0.18-0.03,0.28
		c-0.01,0.14-0.02,0.27,0.03,0.32c-0.21,0.23-0.05,1.03-0.09,1.4l0.11,0.01c-0.01,0.2,0.01,0.39,0.04,0.62l-0.04-0.02
		c0.08,0.3,0.06,0.39,0.03,0.68c0.04-0.03,0.08-0.02,0.12,0.04c-0.02,0.16-0.04,0.32-0.04,0.49c-0.01-0.01-0.02-0.02-0.02-0.03
		c0.01-0.02,0.01-0.05,0.02-0.07c-0.01,0.02-0.02,0.04-0.02,0.06c-0.04-0.06-0.06-0.14,0.01-0.26c-0.03-0.02-0.06-0.08-0.09-0.1
		c-0.06,0.19-0.01,0.48-0.01,0.61c0-0.05,0.01-0.11,0.02-0.14l0.03,0.14c-0.01,0.13,0.01,0.27,0.03,0.4
		c-0.01-0.02-0.02-0.03-0.03-0.06c0.01,0.11,0.06,0.18,0.07,0.34c-0.08-0.04-0.15-0.03-0.19-0.22l0.08,0.47
		c-0.03,0.03-0.09,0.26-0.12,0.19c-0.03,0.2,0.06,0.47,0.09,0.75c-0.04,0.1-0.07,0.17-0.02,0.16l0.03-0.02c0,0.06,0,0.12-0.01,0.18
		c0.02,0.02,0.03,0.06,0.04,0.14c-0.02,0.35-0.12,0.67-0.01,1.08l-0.14,0.24c0.03,0.33,0.18-0.32,0.23,0.22
		c0.05,0.39-0.12,0.14-0.16,0.28c0.07,0.19,0.21,0.53,0.1,0.88c-0.03-0.12-0.01-0.21-0.02-0.32l-0.08,0.27
		c-0.13-0.32-0.08-0.56-0.19-0.31c0.27,0.04,0.03,1.05,0.3,1.09l-0.06,0.18c0-0.05-0.02-0.06-0.01-0.11
		c-0.13,0.35,0.19,0.26,0.16,0.71c-0.02,0.16-0.06,0.26-0.09,0.16l0.07,0.35c-0.01,0.08-0.04,0.08-0.05,0.02l0.02,0.49
		c0.02,0.05,0.06,0.13,0.09,0.21c-0.01,0.03-0.01,0.06-0.01,0.08c-0.01,0-0.01,0-0.01,0l0.01,0.04c-0.01,0.04-0.01,0.08-0.02,0.11
		c0.02-0.01,0.03-0.02,0.04-0.02l0.03,0.12c-0.01,0.02-0.01,0.04-0.02,0.07c-0.06,0.03-0.11-0.18-0.1-0.35
		c-0.27,0.27,0.07,0.24-0.09,0.83l-0.03-0.28c-0.15,0.18-0.09,0.39-0.19,0.71c0.04-0.07,0.21-0.54,0.29-0.37
		c-0.02-0.08-0.06-0.19-0.01-0.24c0.01,0.02,0.02,0.03,0.03,0.03c0.01,0.08,0.01,0.14,0.01,0.21c-0.01,0.02-0.01,0.03-0.02,0.05
		v0.01c-0.02,0.07-0.03,0.16-0.01,0.27c0,0.04,0,0.08,0.01,0.11c-0.07,0.03-0.05,0.18-0.04,0.37c-0.02,0-0.03-0.08-0.06-0.14
		c0,0.06,0.01,0.1,0.01,0.14l-0.08-0.01c0.04,0.23,0.11,0.21,0.16,0.34c-0.01,0.25-0.11,0.31-0.19,0.37
		c-0.02,0.4,0.16-0.28,0.18,0.19c-0.05,0.34,0,0.58,0.08,0.98c-0.04,0.23-0.08-0.04-0.11,0.04l0.1,0.21
		c-0.01,0.05-0.03,0.04-0.05,0.03c0.04,0.18,0.13,0.01,0.16,0.29c0.14,0.07-0.21,0.57-0.04,0.91c-0.04,0.08-0.08-0.04-0.13-0.01
		c0.11,0.47,0.08,0.4,0.22,0.78l-0.08,0.33c0.05-0.12,0.1-0.1,0.16-0.02c-0.02,0.08-0.04,0.16-0.04,0.23
		c-0.02-0.01-0.05-0.02-0.07-0.01C2,35.3,2.01,35.35,2.02,35.42C2,35.39,1.98,35.37,1.97,35.38c-0.02,0.02,0.01,0.06,0.04,0.13
		l-0.14,0.09l0.06,0.03l-0.04,0.28c-0.03,0.06-0.06,0.12-0.07,0.16c-0.02,0.04-0.03-0.07-0.04-0.13c-0.08,0.33,0,0.26,0.07,0.27
		c0.02,0.06,0.04,0.12,0.07,0.18c-0.07,0.04-0.16-0.08-0.17,0.16c-0.06,0.12,0.22,0.73,0.09,1.08c0.01-0.01,0.01-0.01,0.02-0.02
		c-0.01,0.02-0.01,0.04-0.02,0.07c0.08-0.05,0.12,0.01,0.14,0.12c-0.02,0.11-0.04,0.23-0.07,0.34c0-0.03,0-0.07,0-0.12
		c-0.04,0.09-0.04,0.17-0.02,0.24c-0.02,0.14-0.01,0.27,0.06,0.36c-0.02,0.03-0.03,0.04-0.04,0.04c0.02,0.11,0.04,0.28,0.06,0.44
		c-0.01,0.01-0.01,0.01-0.02-0.01c-0.01,0.18-0.01,0.43,0,0.67c0,0.08,0.01,0.17,0.02,0.26c0.01,0.11,0.02,0.22,0.04,0.3
		c0.01,0.07,0.02,0.14,0.02,0.21c-0.06-0.02-0.13-0.05-0.15-0.07l0.14,0.2C2,40.72,1.97,40.75,1.92,40.74l0.01,0.1l-0.12-0.1
		c0.11,0.17,0.09,0.26,0.07,0.38l0.06-0.03l0.01,0.19c-0.03-0.03-0.05-0.08-0.07-0.15c-0.02,0.11-0.04,0.25,0.01,0.49
		c0.01-0.01,0.02-0.03,0.03-0.04c0.01,0.13,0.02,0.22,0.05,0.29c-0.02,0.05-0.04,0.11-0.07,0.21c0.02-0.02,0.04-0.03,0.08-0.02v0.01
		C1.99,42.08,2,42.08,2.01,42.1C2,42.11,1.99,42.08,1.97,42.07c-0.01,0.09-0.02,0.15-0.02,0.22c-0.03,0-0.05-0.01-0.06-0.02
		l0.06,0.11c-0.01,0.13-0.01,0.23,0,0.32c-0.03,0.02-0.07,0.06-0.08,0.09c0.03,0-0.01,0.41,0.01,0.52l0.05-0.19
		c-0.01,0.16,0.02,0.27,0.06,0.35c-0.02,0.14-0.04,0.32-0.06,0.51v0.01c-0.02,0.19-0.02,0.39,0,0.59c-0.01-0.02-0.02-0.04-0.03-0.07
		c-0.05,0.19-0.08,0.05-0.07,0.34c-0.07,0.11-0.09-0.16-0.1-0.24l-0.04,0.67c0.09-0.02,0.12,0.23,0.17,0.38
		c-0.02,0.21-0.04,0.39-0.01,0.54c-0.02,0.23,0.17,0.4,0.06,0.7c-0.01,0.11-0.17,0.33-0.1,0.35c0.06-0.07,0.16-0.12,0.27-0.14
		c-0.03,0.21-0.01,0.55-0.09,0.54c0,0.02,0,0.04,0,0.06c-0.02,0-0.03,0.01-0.05,0.03c0.02,0.01,0.03,0.02,0.05,0.05
		c0,0.05,0,0.1,0,0.15c-0.03,0-0.06-0.01-0.05,0.15c0.02,0.01,0.04,0.03,0.04,0.06c-0.02,0.92-0.09,1.82-0.1,2.69l0.15-0.12
		l-0.01,0.15C2,50.86,1.99,50.88,1.96,50.91c0.02,0.01,0.03,0.03,0.05,0.07l-0.01,0.09C1.97,51.17,1.9,51.2,1.9,50.94
		c-0.08,0.13,0.07,0.43,0.1,0.43C2,51.44,1.99,51.49,1.97,51.52c0,0.01,0,0.01-0.01,0.02c-0.06,0.14-0.14-0.33-0.14-0.2l0.01,0.21
		l0.02-0.05c0.06,0.17,0.12,0.18,0.12,0.49c-0.03,0.19-0.09,0.1-0.09,0.18c-0.01,0-0.02,0.03-0.01,0.12l-0.01,0.45l0.11-0.18
		c0.06,0.19,0,0.4,0.11,0.25c-0.01,0.02-0.02,0.05-0.03,0.08c-0.13,0.44-0.03,1.59-0.08,1.75c0.08,0.28,0.08,0.56,0.07,0.9
		c0.03-0.09,0.16-0.14,0.14,0.16c-0.26-0.11-0.12,0.51-0.29,0.76c0.11-0.12,0.03,0.85,0.2,0.52c-0.02,0.24-0.1,0.01-0.16,0.2
		c0.1,0.58-0.07,1.29-0.03,2.01c0.03,0.02,0.09-0.11,0.14,0.04l-0.17,0.38c0.02,0.14,0.2,0.13,0.08,0.39c0.03-0.04,0.08-0.09,0.08,0
		c-0.12,1.04,0.01,2.11-0.04,3.18c0,0.07-0.01,0.13-0.01,0.19c-0.47,0-0.91,0.01-1.01,0.07l0.63-0.03
		c-0.44,0.09-0.07,0.18,0.34,0.29c-0.02,0.22-0.06,0.43-0.1,0.64c0.07-0.19,0.07-0.06,0.08,0.09c0.02-0.1,0.08,0,0.13-0.02
		l-0.13,0.61c0.13,0.11,0.01,0.65,0.13,0.71l-0.02-0.19c0.15,0.26,0.33-0.36,0.52-0.32C2.38,64.94,2.8,64.47,2.55,64
		c0.04-0.1,0.07,0.09,0.11,0.03C2.64,64,2.62,63.95,2.6,63.91c0.04,0.03,0.06,0.05,0.04,0.08c0.94-0.18,2.48,0.27,4.03,0.01
		c0.34,0.04-0.29,0.07-0.11,0.12c0.22-0.05,0.47-0.08,0.81-0.08l-0.12,0.04c0.29-0.01,0.6-0.02,0.92-0.03
		c0.04,0.01,0.08,0.01,0.13,0.01l-0.1,0.02c2.04-0.02,3.11,0.04,4.98,0.09c-0.41,0.04-0.09,0.09,0.83,0.07
		c-0.24-0.02-0.5-0.04-0.44-0.07c0.28,0.01,0.59,0.02,0.92,0.02l-0.21-0.1c0.22,0.01,0.38,0.01,0.51,0.02h0.02
		c0.19,0.02,0.31,0.03,0.47,0.05c0.22-0.05,0.13-0.07-0.08-0.08l0.09-0.01c0.74,0.02,1.7,0.01,2.45,0.03
		c0.58,0.01,1.04,0.04,1.21,0.12c0.01,0,0.02,0,0.03,0c-0.04,0.01-0.05,0.02-0.03,0.04l-0.51,0.03c0.26,0.02,0.75,0.04,0.78,0.09
		c0.04-0.03-0.21-0.08-0.27-0.12l0.75-0.06c-0.16,0-0.29,0-0.39,0.01c0.04-0.04-0.37-0.1,0.28-0.1l0.17,0.05
		c-0.02,0-0.03,0.01-0.05,0.01l0.07-0.01l0.04,0.01l0.06-0.02l0.55-0.04c0.28,0.02,0.45,0.06,0.52,0.1c-0.02,0-0.03,0-0.05,0.01
		c0.02,0,0.04,0,0.06,0c0.01,0.01,0.02,0.02,0.02,0.02c-0.14-0.01-0.38,0.01-0.54,0.02c0.23,0.02,0.53,0.03,0.83,0.03
		c0.08,0.01,0.17,0.02,0.3,0.03l-0.09-0.03c0.55-0.01,1.08-0.03,1.31-0.03L22,64.21c0.52-0.01,1.07-0.02,1.64-0.02
		c-0.17,0.01-0.33,0.02-0.48,0.03c0.04,0.01,0.08,0.02,0.12,0.02c0.17-0.01,0.3-0.03,0.43-0.05c0.26,0,0.53,0,0.81,0
		c-0.02,0.01-0.03,0.02-0.04,0.03c0.03,0.02,0.11,0.03,0.31,0.02c0.34-0.04,0.72-0.04,1.15-0.04c-0.13-0.01-0.26-0.01-0.39-0.02
		c0.32,0,0.63,0,0.95,0c-0.19,0.01-0.38,0.01-0.56,0.02c0.25,0.01,0.48,0.02,0.71,0.03c0-0.01-0.01-0.01-0.01-0.01
		c0.01,0,0.02,0,0.04,0c0.01-0.01,0.02-0.01,0.03-0.01c0.01-0.01,0.04-0.02,0.07-0.03c0.45,0.02,0.07,0.02-0.07,0.03
		c-0.01,0.01-0.02,0.01-0.02,0.02c0.01,0,0.01,0,0.01,0c0,0,0.01,0,0.01,0l1.48-0.05c-0.17-0.01-0.34-0.01-0.58-0.01
		c0.77-0.01,1.52-0.03,2.21-0.06c0.08,0.03,0.17,0.05,0.26,0.07c0.02-0.03,0.02-0.07,0.82-0.12c-0.06-0.01-0.16-0.02-0.29-0.03
		c0.93-0.01,1.01,0.07,2.64,0.04l-0.07,0.02c0.32-0.04,0.73-0.07,1.17-0.07c0.11-0.01,0.22-0.01,0.33,0
		c-0.18,0.02-0.12,0.04,0.01,0.06c-0.6,0.06-1.26,0.11-1.92,0.08c0.45,0.13,0.23-0.02,0.93,0.14c-0.52-0.17,1.75-0.04,1.75-0.13
		c0.03,0,0.06,0,0.08,0c0.6,0.09,1.1,0.03,1.92,0.17c-0.03-0.04-0.33-0.08,0.49-0.06c-0.01,0-0.01,0-0.01,0.01
		c0.03,0.01,0.09,0.01,0.26-0.01c-0.09,0-0.17-0.01-0.24-0.01c0.04-0.01,0.12-0.03,0.18-0.04c0.01,0,0.01,0,0.01,0
		c0.01-0.01,0.02-0.01,0.03-0.01c-0.01,0-0.02,0.01-0.04,0.01c-0.2-0.02-0.36-0.04-0.42-0.07c0.25-0.06,0.85-0.08,1.37-0.1
		c-0.04,0.01-0.13,0.02-0.28,0.03c0.9,0.08,1.59,0.06,2.17,0.03c0.29,0.05,0.56,0.09-0.2,0.13l1.05,0.01
		c0.62,0.06,1.46,0.07,1.99,0.03c0.35,0.02,0.84-0.04,0.93-0.05c-0.02,0.01-0.06,0.01-0.11,0.02l1.64-0.06l0.02,0.02
		c0.55,0.01,1.11-0.01,1.67-0.03c0.33,0.05,1.1-0.03,1.34-0.02c-0.06,0.01-0.11,0.01-0.14,0.03c0.07,0.01,0.13,0.01,0.2,0.01
		c-0.02,0.01-0.04,0.02-0.08,0.04c0.04-0.02,0.09-0.02,0.13-0.03c0.36,0.02,0.66,0.03,0.93,0.04c-0.29-0.03-0.55-0.06-0.75-0.08
		c0.07-0.01,0.13-0.02,0.21-0.02c0.55,0.01,1.1,0.02,1.66,0.08c0.36-0.02,0.73-0.03,1.21-0.04l-0.36,0.08
		c0.45-0.06,0.88-0.03,1.3-0.01l0.04,0.02c0.07-0.01,0.13-0.01,0.21-0.01c0.38,0.03,0.76,0.05,1.14,0.03
		c-0.53,0-0.79-0.01-0.91-0.03c0.73,0.01,1.72,0.07,1.97,0c0.76,0.23,3.4,0.05,4.63,0.09l0.05-0.11c0.66,0.01,1.3-0.02,2.05-0.04
		l-0.08,0.04c1-0.08,1.31-0.06,2.29-0.03c-0.12-0.03-0.07-0.09,0.13-0.13c0.52,0.02,1.07,0.04,1.64,0.05
		c-0.03,0.01-0.07,0.02-0.1,0.02c-0.04,0-0.08-0.01-0.13-0.01c0.03,0.01,0.06,0.01,0.09,0.01c-0.22,0.04-0.48,0.07-0.86-0.01
		c-0.06,0.04-0.27,0.07-0.33,0.1c0.63,0.07,1.6,0.02,2.04,0.02c-0.17-0.01-0.38-0.01-0.48-0.02l0.47-0.04
		c0.43,0.01,0.88-0.01,1.32-0.03c-0.06,0.01-0.12,0.02-0.18,0.03c0.36-0.01,0.61-0.06,1.14-0.07c-0.13,0.08-0.11,0.16-0.79,0.21
		l1.63-0.09c0.11,0.03,0.87,0.1,0.65,0.13c0.67,0.03,1.56-0.07,2.46-0.1c0.33,0.05,0.57,0.08,0.53,0.02l-0.06-0.03
		c0.2,0,0.41,0,0.61,0.01c0.07-0.02,0.19-0.03,0.46-0.04c1.17,0.02,2.2,0.12,3.59,0.01l0.79,0.15c1.08-0.03-1.07-0.19,0.74-0.24
		c1.28-0.05,0.48,0.13,0.93,0.17c0.63-0.08,1.74-0.23,2.92-0.11c-0.39,0.03-0.7,0.01-1.06,0.02l0.9,0.09
		c-1.08,0.13-1.86,0.09-1.02,0.21c0.12-0.29,3.48-0.03,3.6-0.32l0.58,0.06c-0.16-0.01-0.19,0.02-0.36,0.01
		c1.15,0.14,0.85-0.21,2.34-0.17c0.48,0.02,0.82,0.06,0.58,0.09l1.08-0.06c0.28,0,0.27,0.04,0.07,0.04l1.61-0.02l-0.01,0.01
		c0.16-0.03,0.46-0.07,0.72-0.11c0.09,0.01,0.18,0.01,0.26,0.01c-0.01,0.01-0.01,0.01,0.01,0.01l0.11-0.01
		c0.13,0.01,0.27,0.01,0.39,0.02c-0.03-0.01-0.06-0.03-0.07-0.04l0.41-0.03c0.07,0.01,0.15,0.01,0.23,0.02
		c0.09,0.07-0.58,0.12-1.17,0.11c0.9,0.29,0.81-0.07,2.75,0.09l-0.92,0.04c0.59,0.17,1.31,0.11,2.34,0.21
		c-0.22-0.04-1.76-0.22-1.23-0.31c-0.27,0.02-0.63,0.06-0.78,0.01c0.04-0.02,0.07-0.03,0.11-0.04c0.24-0.01,0.47-0.01,0.68-0.01
		c0.06,0.01,0.11,0.01,0.18,0.02c0.01,0,0.02,0,0.03,0c0.22,0.02,0.51,0.03,0.89,0.01c0.13,0.01,0.26,0,0.38-0.01
		c0.09,0.07,0.58,0.06,1.2,0.05c0,0.03-0.26,0.04-0.44,0.06c0.17,0,0.33-0.01,0.47-0.01l-0.03,0.09c0.76-0.04,0.7-0.11,1.13-0.17
		c0.84,0.01,1.01,0.12,1.21,0.21c1.34,0.02-0.92-0.17,0.66-0.2c1.12,0.06,1.9-0.01,3.23-0.09c0.78,0.05-0.14,0.09,0.14,0.13
		l0.7-0.11c0.17,0.01,0.11,0.03,0.09,0.06c0.58-0.04,0.04-0.14,0.96-0.18c0.24-0.15,1.88,0.22,3.01,0.05
		c0.28,0.04-0.13,0.08-0.05,0.14c1.56-0.12,1.33-0.08,2.61-0.23l1.09,0.09c-0.41-0.05-0.34-0.11-0.06-0.17
		c0.25,0.02,0.52,0.04,0.77,0.04c-0.04,0.03-0.07,0.06-0.04,0.08c0.09-0.01,0.27-0.03,0.47-0.03c-0.09,0.02-0.15,0.04-0.11,0.06
		c0.05,0.02,0.2-0.02,0.43-0.05l0.32,0.16l0.08-0.07l0.92,0.05c0.2,0.03,0.38,0.07,0.53,0.07c0.14,0.02-0.22,0.03-0.41,0.04
		c1.09,0.08,0.85,0,0.9-0.08c0.21-0.02,0.41-0.05,0.61-0.07c0.13,0.07-0.28,0.17,0.51,0.18c0.42,0.06,2.44-0.24,3.58-0.1
		c-0.02-0.01-0.04-0.01-0.07-0.02c0.07,0.01,0.15,0.01,0.23,0.02c-0.16-0.08,0.04-0.12,0.39-0.14c0.35,0.01,0.75,0.04,1.15,0.07
		c-0.12,0-0.25,0-0.4,0c0.32,0.04,0.57,0.04,0.8,0.02c0.45,0.02,0.87,0.01,1.19-0.06c0.11,0.02,0.16,0.03,0.16,0.04
		c0.35-0.03,0.93-0.04,1.47-0.07c0.02,0.01,0.01,0.02-0.04,0.03c0.62,0.01,1.43,0.01,2.2,0c0.26,0,0.55-0.01,0.85-0.02
		c0.37-0.01,0.72-0.02,1-0.04c0.25-0.01,0.48-0.02,0.68-0.02c-0.07,0.07-0.17,0.14-0.22,0.17l0.67-0.15
		c0.14,0.02,0.23,0.05,0.23,0.09h0.31l-0.32,0.13c0.54-0.12,0.85-0.1,1.26-0.08l-0.09-0.06l0.65-0.01c-0.11,0.03-0.27,0.06-0.5,0.07
		c0.38,0.02,0.84,0.05,1.64-0.01c-0.05,0-0.11-0.02-0.16-0.03c0.42-0.01,0.72-0.03,0.97-0.06c0.16,0.02,0.37,0.04,0.72,0.08
		c-0.11-0.02-0.13-0.06-0.09-0.09c0.27,0.01,0.51,0.02,0.72,0.02c-0.01,0.03-0.04,0.06-0.12,0.07l0.41-0.07
		c0.42,0.01,0.74,0.01,1.05,0c0.08,0.04,0.19,0.07,0.31,0.09c-0.08-0.04,1.32,0.01,1.71-0.02l-0.64-0.06
		c0.52,0.01,0.87-0.02,1.17-0.06c0.43,0.02,1.03,0.05,1.69,0.07c0.01,0,0.01,0,0.01,0c0.63,0.02,1.31,0.03,1.96,0
		c-0.08,0.01-0.16,0.02-0.23,0.03c0.64,0.06,0.18,0.08,1.13,0.08c0.34,0.07-0.52,0.1-0.8,0.11l2.22,0.04
		c-0.07-0.1,0.78-0.13,1.27-0.18c0.68,0.03,1.3,0.04,1.78,0.01c0.78,0.01,1.33-0.19,2.31-0.06c0.37,0.01,1.09,0.19,1.15,0.1
		c-0.22-0.06-0.37-0.17-0.46-0.29c0.67,0.03,1.82,0.01,1.79,0.09c0.06,0,0.13,0,0.19,0c0,0.02,0.03,0.04,0.11,0.06
		c0.01-0.02,0.08-0.03,0.16-0.06c0.16,0,0.33,0,0.49,0c0.01,0.03-0.02,0.07,0.51,0.06c0.02-0.03,0.08-0.04,0.17-0.05
		c3.05,0.02,6.03,0.1,8.91,0.11l-0.39-0.16l0.49,0.01c0,0.01,0.04,0.03,0.16,0.06c0.02-0.02,0.09-0.04,0.22-0.06h0.31
		c0.31,0.04,0.42,0.13-0.42,0.12c0.44,0.09,1.41-0.07,1.43-0.11c0.23,0.01,0.38,0.02,0.47,0.03c0.01,0,0.02,0.01,0.04,0.01
		c0.48,0.07-1.08,0.15-0.66,0.16l0.69-0.02l-0.16-0.02c0.56-0.06,0.61-0.13,1.62-0.12c0.64,0.03,0.33,0.09,0.58,0.1
		c0,0.01,0.08,0.02,0.39,0.01l1.49,0.02l-0.6-0.13c0.62-0.06,1.32,0,0.81-0.11c1.18,0.19,5.48,0.06,6.08,0.12
		c0.93-0.09,1.84-0.09,2.97-0.08c-0.26-0.02-0.43-0.15,0.37-0.15c0.05,0,0.1,0,0.16,0c-0.34,0.28,1.65,0.14,2.49,0.32
		c-0.18-0.11,2.79-0.03,1.76-0.21c0.81,0.02,0.05,0.11,0.67,0.18c1.94-0.12,4.27,0.07,6.66,0.03c0.04-0.04-0.36-0.1,0.15-0.16
		l1.27,0.19c0.47-0.02,0.43-0.22,1.3-0.08c-0.12-0.03-0.3-0.08,0.02-0.09c4.69,0.19,9.59-0.15,14.35,0.2
		c-0.65-0.08-0.21-0.08,0.28-0.09c-0.32-0.02,0.01-0.09-0.06-0.14l2,0.14c0.01,0,0.01,0,0.02-0.01l-0.06,0.24
		c0.13,0.11,0.01,0.65,0.13,0.71l-0.02-0.19c0.14,0.25,0.33-0.36,0.52-0.32c-0.08-0.13-0.03-0.31,0.02-0.51
		c0.66-0.02,1.59,0.02,1.73-0.08l-0.63,0.02C215.43,63.81,213.41,63.62,213.53,63.41z M213.62,20.56l0.08,0.43
		c-0.03,0.01-0.08-0.02-0.12-0.07C213.59,20.8,213.6,20.67,213.62,20.56z M213.57,13.82l-0.03,0.07
		C213.51,13.73,213.54,13.78,213.57,13.82z M1.82,13.61c0-0.02,0-0.03,0.01-0.06c0.01,0.01,0.01,0.01,0.01,0.01
		C1.84,13.59,1.83,13.6,1.82,13.61z M1.86,45.48l-0.08-0.44c0.03-0.01,0.08,0.02,0.12,0.07C1.9,45.23,1.88,45.35,1.86,45.48z
		 M1.91,52.2l0.02-0.07C1.97,52.29,1.94,52.25,1.91,52.2z M1.94,5.27L1.93,5.24c0.01-0.14-0.01-0.38,0.09-0.26
		C1.97,5.04,1.95,5.14,1.94,5.27z M2.07,11.95l-0.06,0.07C2,11.95,2,11.87,2,11.79C2.01,11.83,2.04,11.87,2.07,11.95z M2.11,12.45
		c-0.03-0.11-0.06-0.22-0.08-0.34C2.07,12.19,2.1,12.24,2.11,12.45z M1.98,14.07c-0.03-0.09-0.06-0.19-0.04-0.37
		c0.03-0.02,0.04-0.09,0.04-0.17c0.05-0.08,0.09-0.07,0.14-0.05c0.01,0.08,0.01,0.16,0.01,0.22C2.14,13.82,2.05,13.92,1.98,14.07z
		 M2.35,19.62c0.02-0.03,0.04-0.04,0.05-0.01C2.39,19.62,2.37,19.62,2.35,19.62z M2.7,21.23l0.09,0.44
		c-0.04,0.01-0.08-0.02-0.13-0.07C2.67,21.48,2.69,21.35,2.7,21.23z M2.76,37.14c-0.01-0.01-0.02-0.02-0.03-0.03
		c-0.01-0.07-0.01-0.14-0.01-0.21c0.01-0.02,0.01-0.03,0.02-0.05C2.75,36.93,2.81,37.08,2.76,37.14z M2.65,14.5l-0.03,0.07
		C2.6,14.42,2.63,14.46,2.65,14.5z M2.59,24.63c-0.01-0.01-0.03-0.01-0.04-0.02C2.56,24.59,2.59,24.62,2.59,24.63z M2.54,1.15v0.01
		v0.01c0-0.01-0.01-0.02-0.01-0.02C2.53,1.15,2.54,1.15,2.54,1.15z M2.43,53c0-0.03,0.01-0.06,0.01-0.09
		c0.03-0.08,0.09-0.16,0.14-0.28c0.03,0.09,0.06,0.19,0.04,0.37c-0.01,0.01-0.01,0.01-0.02,0.02c-0.02,0.03-0.02,0.09-0.03,0.15
		c-0.05,0.08-0.1,0.07-0.14,0.05C2.42,53.15,2.42,53.06,2.43,53z M2.54,54.6c-0.04-0.08-0.07-0.13-0.08-0.34
		C2.47,54.36,2.51,54.48,2.54,54.6z M2.5,54.75l0.06-0.07c0.01,0.07,0.02,0.14,0.02,0.22C2.55,54.88,2.52,54.83,2.5,54.75z
		 M2.54,61.72c0.04-0.06,0.07-0.17,0.08-0.29l0.01,0.03C2.62,61.6,2.64,61.84,2.54,61.72z M2.64,25.61l-0.01-0.19
		c0.03,0.03,0.05,0.08,0.07,0.15c-0.01,0.01-0.01,0.01-0.01,0.02L2.64,25.61z M2.66,57.01c0.03-0.02,0.05-0.05,0.07-0.08
		c0.01,0,0.01,0,0.02,0.01l-0.01,0.48l-0.01-0.03l0.01,0.1c-0.01,0.05-0.01,0.11-0.01,0.19C2.71,57.45,2.69,57.22,2.66,57.01z
		 M2.73,58.3c0-0.09,0-0.19,0-0.29c0.01,0.06,0.01,0.12,0.01,0.17C2.74,58.22,2.73,58.26,2.73,58.3z M2.76,57.96
		c-0.01,0-0.01-0.01-0.01-0.01c-0.01,0-0.02-0.01-0.03-0.02H2.73c0-0.02,0-0.03,0-0.06c0,0.02,0,0.04,0.01,0.06
		c0.02-0.13,0.02-0.02,0.03,0.02c0.01,0,0.01,0.01,0.02,0.01C2.76,57.97,2.76,57.98,2.76,57.96z M2.72,51.04
		C2.71,51.02,2.71,51,2.7,50.98c0.01-0.17,0.02-0.33,0.07-0.5c0.01,0.11,0.02,0.21,0.02,0.33C2.77,50.9,2.74,50.98,2.72,51.04z
		 M2.82,49.68c0.01-0.09,0.02-0.19,0.02-0.28C2.84,49.56,2.84,49.64,2.82,49.68z M15.09,64.08c-0.47-0.01-1.26,0.01-0.87-0.11
		c0.19,0.06,0.53,0.08,0.95,0.09L15.09,64.08z M15.81,1.55c-0.47-0.01-1.26,0.01-0.87-0.1c0.19,0.05,0.55,0.08,0.97,0.09L15.81,1.55
		z M37.99,1.4l0.23,0.06c-0.24,0.01-0.49,0.02-0.75,0.02C37.59,1.46,37.75,1.43,37.99,1.4z M30.54,1.58
		c0.08,0.02,0.17,0.05,0.26,0.07c-0.01,0.01-0.01,0.01-0.02,0.02l-1.61-0.01l0.12-0.01l-0.33,0.01c-0.18-0.01-0.38-0.01-0.64-0.01
		C29.1,1.63,29.84,1.61,30.54,1.58z M27.5,1.65c0.44,0.02,0.08,0.02-0.06,0.03C27.45,1.67,27.47,1.66,27.5,1.65z M27.4,1.69
		c0.01,0,0.02,0,0.03,0c-0.01,0.01-0.02,0.01-0.02,0.01c-0.03-0.01-0.04-0.01-0.06-0.01C27.36,1.69,27.38,1.69,27.4,1.69z
		 M27.21,1.65c-0.2,0.01-0.38,0.01-0.56,0.01c-0.13-0.01-0.26-0.01-0.39-0.01C26.57,1.65,26.9,1.65,27.21,1.65z M36.76,64.01
		c0.12-0.02,0.28-0.04,0.52-0.08l0.23,0.06C37.27,64,37.02,64.01,36.76,64.01z M37.79,63.97c0.27-0.05,0.43-0.08,1.14-0.09
		C38.57,63.91,38.19,63.95,37.79,63.97z M38.5,1.45c0.27-0.05,0.43-0.08,1.14-0.09C39.28,1.38,38.9,1.42,38.5,1.45z M55.66,1.77
		c-0.51,0-0.76-0.01-0.88-0.02C55.05,1.76,55.37,1.77,55.66,1.77z M43.32,1.66c0.02-0.01,0.02-0.01,0.03-0.01
		c0.19,0.01,0.3,0.02,0.34,0.02C43.65,1.67,43.5,1.66,43.32,1.66z M50.49,1.62c0.55,0,1.1,0.02,1.66,0.07
		c-0.34,0.02-0.7,0.03-1.12,0.02c-0.29-0.02-0.55-0.06-0.75-0.07C50.35,1.64,50.42,1.63,50.49,1.62z M46.43,0.77l0.23,0.03
		C46.14,0.82,46.29,0.8,46.43,0.77z M43.06,1.33c0.26-0.01,0.53-0.02,0.74-0.01c0.38,0.01,0.7,0.09,1.21,0.17
		c-0.31,0.04-0.66,0.06-1.21,0.04c-0.08-0.03-0.31-0.04-0.57-0.05C42.96,1.43,42.98,1.38,43.06,1.33z M42.63,64.19L42.63,64.19
		c0.09,0,0.17,0.01,0.22,0.01C42.79,64.2,42.71,64.19,42.63,64.19z M43.08,64.07c-0.07-0.03-0.31-0.04-0.57-0.05
		c-0.26-0.06-0.24-0.11-0.16-0.16c0.26-0.01,0.52-0.02,0.73-0.01c0.38,0,0.7,0.09,1.21,0.17C43.99,64.06,43.64,64.09,43.08,64.07z
		 M45.72,63.3l0.23,0.03C45.43,63.36,45.58,63.33,45.72,63.3z M70.15,0.62c0.03,0.04-0.06,0.09-0.23,0.13
		c-0.41-0.01-0.83-0.02-1.23-0.04L70.15,0.62z M63.36,1.04c0.01,0.02,0.01,0.03,0.01,0.05C63.27,1.07,63.25,1.05,63.36,1.04z
		 M62.64,63.57c0.01,0.02,0.01,0.03,0.02,0.05C62.56,63.6,62.54,63.59,62.64,63.57z M69.21,63.29c-0.41-0.01-0.82-0.03-1.23-0.04
		l1.46-0.09C69.47,63.19,69.38,63.24,69.21,63.29z M79.16,63.41c-0.06-0.02,0.04-0.03,0.08-0.04C79.22,63.37,79.2,63.4,79.16,63.41z
		 M81.82,63.32c0.11-0.03,0.27-0.06,0.49-0.07c0.02,0,0.04,0,0.06,0.01l0.09,0.06L81.82,63.32z M96.38,1.65
		c0.24-0.01,0.47-0.01,0.68-0.01c0.06,0.01,0.12,0.01,0.18,0.02c-0.26,0.02-0.78,0.09-0.97,0.03C96.3,1.67,96.34,1.66,96.38,1.65z
		 M120.52,63.22c-0.25,0.01-0.47,0.01-0.68,0.01c-0.06-0.01-0.11-0.01-0.17-0.01c0.26-0.02,0.77-0.09,0.96-0.03
		C120.59,63.2,120.55,63.21,120.52,63.22z M147.68,1.58c0.41,0.01,0.83,0.02,1.23,0.04l-1.46,0.09
		C147.43,1.67,147.52,1.62,147.68,1.58z M137.73,1.46c0.06,0.02-0.04,0.04-0.08,0.05C137.67,1.49,137.69,1.47,137.73,1.46z
		 M135.08,1.54c-0.11,0.03-0.27,0.06-0.5,0.07c-0.02,0-0.03,0-0.05,0l-0.09-0.06L135.08,1.54z M136.94,64.04
		c0.02-0.02,0.04-0.03,0.07-0.05C137.08,64,136.98,64.02,136.94,64.04z M146.74,64.24c-0.03-0.04,0.06-0.08,0.23-0.13
		c0.41,0.01,0.83,0.03,1.23,0.04L146.74,64.24z M173.57,63.21c-0.01,0-0.02,0-0.03,0.01c-0.03-0.01-0.07-0.01-0.09-0.01
		C173.49,63.21,173.53,63.21,173.57,63.21z M174.27,0.68c-0.01,0.01-0.01,0.01-0.02,0.01c-0.19-0.01-0.29-0.02-0.34-0.02
		C173.97,0.66,174.1,0.67,174.27,0.68z M173.81,0.8c0.08,0.03,0.31,0.04,0.57,0.04c0.27,0.06,0.24,0.11,0.17,0.16
		c-0.26,0.01-0.53,0.02-0.74,0.01c-0.38-0.01-0.7-0.09-1.21-0.17C172.91,0.8,173.25,0.78,173.81,0.8z M171.17,1.57l-0.23-0.03
		C171.47,1.51,171.32,1.54,171.17,1.57z M154.25,1.3c-0.01-0.02-0.01-0.03-0.01-0.05C154.33,1.26,154.35,1.28,154.25,1.3z
		 M153.54,63.82c-0.01-0.02-0.01-0.03-0.02-0.05C153.62,63.8,153.64,63.81,153.54,63.82z M166.41,63.25
		c-0.55-0.01-1.1-0.03-1.67-0.08c0.35-0.02,0.7-0.03,1.12-0.02c0.28,0.03,0.55,0.06,0.75,0.08
		C166.55,63.23,166.48,63.24,166.41,63.25z M170.46,64.1l-0.22-0.03C170.75,64.04,170.61,64.07,170.46,64.1z M173.84,63.53
		c-0.26,0.01-0.53,0.02-0.74,0.01c-0.38,0-0.7-0.09-1.21-0.17c0.31-0.04,0.65-0.06,1.21-0.04c0.08,0.03,0.31,0.04,0.57,0.04
		C173.94,63.43,173.91,63.48,173.84,63.53z M190.17,0.65c-0.01,0.01-0.04,0.02-0.07,0.03c0,0,0,0,0,0.01c-0.07,0-0.13,0-0.18,0
		c0.04,0,0.09-0.01,0.14-0.01C189.69,0.67,190.03,0.66,190.17,0.65z M180.14,0.86c-0.12,0.02-0.28,0.05-0.52,0.08l-0.23-0.06
		C179.63,0.87,179.88,0.86,180.14,0.86z M179.11,0.9c-0.27,0.04-0.43,0.07-1.14,0.09C178.33,0.96,178.7,0.92,179.11,0.9z
		 M177.26,63.52c0.36-0.03,0.73-0.07,1.14-0.09C178.13,63.47,177.96,63.5,177.26,63.52z M178.91,63.47l-0.23-0.06
		c0.24-0.01,0.49-0.02,0.75-0.02C179.31,63.41,179.15,63.44,178.91,63.47z M186.35,63.29c-0.08-0.03-0.17-0.05-0.26-0.07
		c0.01-0.01,0.01-0.01,0.02-0.02l1.6,0.01l-0.11,0.02l0.33-0.01c0.18,0.01,0.38,0.01,0.63,0.01
		C187.8,63.23,187.05,63.25,186.35,63.29z M189.39,63.22c-0.01,0-0.02,0-0.02,0c-0.41-0.02-0.06-0.03,0.09-0.04
		C189.45,63.2,189.42,63.21,189.39,63.22z M189.5,63.18c-0.01,0-0.03,0-0.03,0c0.01-0.01,0.02-0.01,0.02-0.01c0,0-0.01,0-0.01-0.01
		h0.01c0,0.01-0.01,0.01-0.01,0.01c0.03,0.01,0.04,0.01,0.06,0.01C189.53,63.18,189.52,63.18,189.5,63.18z M189.85,63.22
		c0.13-0.01,0.27-0.01,0.39-0.02c0.13,0.01,0.27,0.01,0.4,0.01C190.37,63.21,190.11,63.21,189.85,63.22z M201.95,63.42
		c-0.19-0.05-0.54-0.08-0.96-0.09l0.09-0.01C201.55,63.33,202.35,63.31,201.95,63.42z M202.67,0.89c-0.19-0.05-0.55-0.08-0.97-0.09
		l0.1-0.01C202.26,0.8,203.06,0.78,202.67,0.89z M212.99,11.27l-0.06,0.07c-0.01-0.07-0.02-0.14-0.02-0.23
		C212.94,11.15,212.96,11.2,212.99,11.27z M213.03,11.76c-0.03-0.11-0.06-0.22-0.08-0.34C212.99,11.5,213.01,11.55,213.03,11.76z
		 M212.94,4.3c-0.04,0.06-0.07,0.17-0.08,0.29l-0.01-0.03C212.86,4.42,212.84,4.18,212.94,4.3z M212.85,40.61
		c-0.03-0.03-0.05-0.08-0.07-0.15c0.01-0.01,0.01-0.01,0.01-0.02l0.06-0.03L212.85,40.61z M212.82,9.02
		c-0.02,0.02-0.04,0.05-0.06,0.08c-0.01,0-0.01,0-0.02-0.01l0.01-0.48l0.01,0.03l-0.01-0.1c0.01-0.05,0.01-0.11,0.01-0.19
		C212.77,8.58,212.79,8.8,212.82,9.02z M212.75,7.72c0,0.1,0,0.19,0,0.29c-0.01-0.06-0.01-0.12-0.01-0.17
		C212.75,7.8,212.75,7.76,212.75,7.72z M212.72,8.06c0.01,0,0.01,0.01,0.01,0.01c0.01,0.01,0.02,0.01,0.03,0.02h0.01
		c0,0.02,0,0.04,0,0.06c0-0.02,0-0.03-0.01-0.06c-0.02,0.13-0.02,0.02-0.03-0.02c-0.01-0.01-0.01-0.01-0.02-0.01
		C212.71,8.06,212.71,8.06,212.72,8.06z M212.64,16.62c0-0.16,0.01-0.24,0.03-0.28C212.66,16.43,212.65,16.53,212.64,16.62z
		 M212.76,14.98c0.01,0.02,0.01,0.04,0.02,0.06c-0.01,0.16-0.02,0.33-0.07,0.51c-0.01-0.11-0.02-0.21-0.02-0.34
		C212.71,15.12,212.74,15.04,212.76,14.98z M212.76,29.12c-0.01,0.02-0.01,0.03-0.02,0.05c-0.02-0.08-0.08-0.23-0.02-0.29
		c0.01,0.01,0.02,0.02,0.03,0.03C212.76,28.99,212.76,29.05,212.76,29.12z M212.78,44.79l-0.08-0.44c0.04-0.01,0.08,0.02,0.12,0.07
		C212.81,44.54,212.8,44.67,212.78,44.79z M212.83,51.52l0.02-0.07C212.88,51.61,212.86,51.57,212.83,51.52z M212.89,41.39
		c0.02,0.01,0.03,0.01,0.05,0.02C212.92,41.43,212.9,41.4,212.89,41.39z M212.9,13.39c-0.03-0.09-0.06-0.19-0.04-0.37
		c0.03-0.02,0.04-0.09,0.04-0.17c0.05-0.08,0.1-0.07,0.14-0.05c0.01,0.08,0.02,0.16,0.01,0.22
		C213.05,13.14,212.97,13.23,212.9,13.39z M213.35,52.32c0-0.03,0.01-0.06,0.01-0.08c0.03-0.08,0.09-0.17,0.14-0.28
		c0.03,0.09,0.06,0.2,0.04,0.37c-0.01,0.01-0.01,0.02-0.02,0.03c-0.02,0.03-0.02,0.08-0.03,0.14c-0.05,0.08-0.1,0.07-0.14,0.05
		C213.34,52.46,213.34,52.38,213.35,52.32z M213.45,53.92c-0.04-0.08-0.07-0.13-0.08-0.34C213.4,53.68,213.43,53.8,213.45,53.92z
		 M213.41,54.08l0.06-0.07c0.01,0.07,0.02,0.14,0.02,0.23C213.46,54.2,213.44,54.15,213.41,54.08z M213.54,60.75l0.01,0.02
		c-0.01,0.14,0.01,0.38-0.09,0.26C213.5,60.98,213.53,60.88,213.54,60.75z"/>
	<path class="st0" d="M1.52,25.05c-0.01,0.08,0.01,0.17,0.02,0.26C1.54,25.13,1.65,25.03,1.52,25.05z"/>
	<path class="st0" d="M1.31,0.82L1.15,0.68L0.71,0.81C0.88,0.8,1.19,0.79,1.31,0.82z"/>
	<path class="st0" d="M0.97,1.68C0.65,1.67,0.76,1.76,0.71,1.77C1.25,1.76,0.96,1.65,0.97,1.68z"/>
	<path class="st0" d="M0,63.34c0.16-0.01,0.48-0.02,0.6,0.01l-0.17-0.14L0,63.34z"/>
	<path class="st0" d="M0.26,64.21c-0.32-0.01-0.21,0.08-0.26,0.1C0.53,64.29,0.24,64.19,0.26,64.21z"/>
</g>
</svg>
